<svg width="14" height="14" viewBox="0 0 14 14" fill="none" xmlns="http://www.w3.org/2000/svg">
<g id="calendar-month" clip-path="url(#clip0_1878_126215)">
<g id="Vector">
<mask id="path-1-inside-1_1878_126215" fill="white">
<path d="M0 12.6C0 12.9713 0.1475 13.3274 0.41005 13.5899C0.672601 13.8525 1.0287 14 1.4 14H12.6C12.9713 14 13.3274 13.8525 13.5899 13.5899C13.8525 13.3274 14 12.9713 14 12.6V5.6H0V12.6ZM9.8 7.35C9.8 7.25717 9.83687 7.16815 9.90251 7.10251C9.96815 7.03687 10.0572 7 10.15 7H10.85C10.9428 7 11.0318 7.03687 11.0975 7.10251C11.1631 7.16815 11.2 7.25717 11.2 7.35V8.05C11.2 8.14283 11.1631 8.23185 11.0975 8.29749C11.0318 8.36312 10.9428 8.4 10.85 8.4H10.15C10.0572 8.4 9.96815 8.36312 9.90251 8.29749C9.83687 8.23185 9.8 8.14283 9.8 8.05V7.35ZM9.8 10.15C9.8 10.0572 9.83687 9.96815 9.90251 9.90251C9.96815 9.83687 10.0572 9.8 10.15 9.8H10.85C10.9428 9.8 11.0318 9.83687 11.0975 9.90251C11.1631 9.96815 11.2 10.0572 11.2 10.15V10.85C11.2 10.9428 11.1631 11.0318 11.0975 11.0975C11.0318 11.1631 10.9428 11.2 10.85 11.2H10.15C10.0572 11.2 9.96815 11.1631 9.90251 11.0975C9.83687 11.0318 9.8 10.9428 9.8 10.85V10.15ZM6.3 7.35C6.3 7.25717 6.33687 7.16815 6.40251 7.10251C6.46815 7.03687 6.55717 7 6.65 7H7.35C7.44283 7 7.53185 7.03687 7.59749 7.10251C7.66313 7.16815 7.7 7.25717 7.7 7.35V8.05C7.7 8.14283 7.66313 8.23185 7.59749 8.29749C7.53185 8.36312 7.44283 8.4 7.35 8.4H6.65C6.55717 8.4 6.46815 8.36312 6.40251 8.29749C6.33687 8.23185 6.3 8.14283 6.3 8.05V7.35ZM6.3 10.15C6.3 10.0572 6.33687 9.96815 6.40251 9.90251C6.46815 9.83687 6.55717 9.8 6.65 9.8H7.35C7.44283 9.8 7.53185 9.83687 7.59749 9.90251C7.66313 9.96815 7.7 10.0572 7.7 10.15V10.85C7.7 10.9428 7.66313 11.0318 7.59749 11.0975C7.53185 11.1631 7.44283 11.2 7.35 11.2H6.65C6.55717 11.2 6.46815 11.1631 6.40251 11.0975C6.33687 11.0318 6.3 10.9428 6.3 10.85V10.15ZM2.8 7.35C2.8 7.25717 2.83687 7.16815 2.90251 7.10251C2.96815 7.03687 3.05717 7 3.15 7H3.85C3.94283 7 4.03185 7.03687 4.09749 7.10251C4.16313 7.16815 4.2 7.25717 4.2 7.35V8.05C4.2 8.14283 4.16313 8.23185 4.09749 8.29749C4.03185 8.36312 3.94283 8.4 3.85 8.4H3.15C3.05717 8.4 2.96815 8.36312 2.90251 8.29749C2.83687 8.23185 2.8 8.14283 2.8 8.05V7.35ZM2.8 10.15C2.8 10.0572 2.83687 9.96815 2.90251 9.90251C2.96815 9.83687 3.05717 9.8 3.15 9.8H3.85C3.94283 9.8 4.03185 9.83687 4.09749 9.90251C4.16313 9.96815 4.2 10.0572 4.2 10.15V10.85C4.2 10.9428 4.16313 11.0318 4.09749 11.0975C4.03185 11.1631 3.94283 11.2 3.85 11.2H3.15C3.05717 11.2 2.96815 11.1631 2.90251 11.0975C2.83687 11.0318 2.8 10.9428 2.8 10.85V10.15Z"/>
<path d="M14 2.8C14 2.4287 13.8525 2.0726 13.5899 1.81005C13.3274 1.5475 12.9713 1.4 12.6 1.4H11.2V0.7C11.2 0.514348 11.1263 0.336301 10.995 0.205025C10.8637 0.0737498 10.6857 0 10.5 0C10.3143 0 10.1363 0.0737498 10.005 0.205025C9.87375 0.336301 9.8 0.514348 9.8 0.7V1.4H7.7V0.7C7.7 0.514348 7.62625 0.336301 7.49497 0.205025C7.3637 0.0737498 7.18565 0 7 0C6.81435 0 6.6363 0.0737498 6.50503 0.205025C6.37375 0.336301 6.3 0.514348 6.3 0.7V1.4H4.2V0.7C4.2 0.514348 4.12625 0.336301 3.99497 0.205025C3.8637 0.0737498 3.68565 0 3.5 0C3.31435 0 3.1363 0.0737498 3.00503 0.205025C2.87375 0.336301 2.8 0.514348 2.8 0.7V1.4H1.4C1.0287 1.4 0.672601 1.5475 0.41005 1.81005C0.1475 2.0726 0 2.4287 0 2.8V4.2H14V2.8Z"/>
</mask>
<path d="M0 12.6C0 12.9713 0.1475 13.3274 0.41005 13.5899C0.672601 13.8525 1.0287 14 1.4 14H12.6C12.9713 14 13.3274 13.8525 13.5899 13.5899C13.8525 13.3274 14 12.9713 14 12.6V5.6H0V12.6ZM9.8 7.35C9.8 7.25717 9.83687 7.16815 9.90251 7.10251C9.96815 7.03687 10.0572 7 10.15 7H10.85C10.9428 7 11.0318 7.03687 11.0975 7.10251C11.1631 7.16815 11.2 7.25717 11.2 7.35V8.05C11.2 8.14283 11.1631 8.23185 11.0975 8.29749C11.0318 8.36312 10.9428 8.4 10.85 8.4H10.15C10.0572 8.4 9.96815 8.36312 9.90251 8.29749C9.83687 8.23185 9.8 8.14283 9.8 8.05V7.35ZM9.8 10.15C9.8 10.0572 9.83687 9.96815 9.90251 9.90251C9.96815 9.83687 10.0572 9.8 10.15 9.8H10.85C10.9428 9.8 11.0318 9.83687 11.0975 9.90251C11.1631 9.96815 11.2 10.0572 11.2 10.15V10.85C11.2 10.9428 11.1631 11.0318 11.0975 11.0975C11.0318 11.1631 10.9428 11.2 10.85 11.2H10.15C10.0572 11.2 9.96815 11.1631 9.90251 11.0975C9.83687 11.0318 9.8 10.9428 9.8 10.85V10.15ZM6.3 7.35C6.3 7.25717 6.33687 7.16815 6.40251 7.10251C6.46815 7.03687 6.55717 7 6.65 7H7.35C7.44283 7 7.53185 7.03687 7.59749 7.10251C7.66313 7.16815 7.7 7.25717 7.7 7.35V8.05C7.7 8.14283 7.66313 8.23185 7.59749 8.29749C7.53185 8.36312 7.44283 8.4 7.35 8.4H6.65C6.55717 8.4 6.46815 8.36312 6.40251 8.29749C6.33687 8.23185 6.3 8.14283 6.3 8.05V7.35ZM6.3 10.15C6.3 10.0572 6.33687 9.96815 6.40251 9.90251C6.46815 9.83687 6.55717 9.8 6.65 9.8H7.35C7.44283 9.8 7.53185 9.83687 7.59749 9.90251C7.66313 9.96815 7.7 10.0572 7.7 10.15V10.85C7.7 10.9428 7.66313 11.0318 7.59749 11.0975C7.53185 11.1631 7.44283 11.2 7.35 11.2H6.65C6.55717 11.2 6.46815 11.1631 6.40251 11.0975C6.33687 11.0318 6.3 10.9428 6.3 10.85V10.15ZM2.8 7.35C2.8 7.25717 2.83687 7.16815 2.90251 7.10251C2.96815 7.03687 3.05717 7 3.15 7H3.85C3.94283 7 4.03185 7.03687 4.09749 7.10251C4.16313 7.16815 4.2 7.25717 4.2 7.35V8.05C4.2 8.14283 4.16313 8.23185 4.09749 8.29749C4.03185 8.36312 3.94283 8.4 3.85 8.4H3.15C3.05717 8.4 2.96815 8.36312 2.90251 8.29749C2.83687 8.23185 2.8 8.14283 2.8 8.05V7.35ZM2.8 10.15C2.8 10.0572 2.83687 9.96815 2.90251 9.90251C2.96815 9.83687 3.05717 9.8 3.15 9.8H3.85C3.94283 9.8 4.03185 9.83687 4.09749 9.90251C4.16313 9.96815 4.2 10.0572 4.2 10.15V10.85C4.2 10.9428 4.16313 11.0318 4.09749 11.0975C4.03185 11.1631 3.94283 11.2 3.85 11.2H3.15C3.05717 11.2 2.96815 11.1631 2.90251 11.0975C2.83687 11.0318 2.8 10.9428 2.8 10.85V10.15Z" fill="#6B7280"/>
<path d="M14 2.8C14 2.4287 13.8525 2.0726 13.5899 1.81005C13.3274 1.5475 12.9713 1.4 12.6 1.4H11.2V0.7C11.2 0.514348 11.1263 0.336301 10.995 0.205025C10.8637 0.0737498 10.6857 0 10.5 0C10.3143 0 10.1363 0.0737498 10.005 0.205025C9.87375 0.336301 9.8 0.514348 9.8 0.7V1.4H7.7V0.7C7.7 0.514348 7.62625 0.336301 7.49497 0.205025C7.3637 0.0737498 7.18565 0 7 0C6.81435 0 6.6363 0.0737498 6.50503 0.205025C6.37375 0.336301 6.3 0.514348 6.3 0.7V1.4H4.2V0.7C4.2 0.514348 4.12625 0.336301 3.99497 0.205025C3.8637 0.0737498 3.68565 0 3.5 0C3.31435 0 3.1363 0.0737498 3.00503 0.205025C2.87375 0.336301 2.8 0.514348 2.8 0.7V1.4H1.4C1.0287 1.4 0.672601 1.5475 0.41005 1.81005C0.1475 2.0726 0 2.4287 0 2.8V4.2H14V2.8Z" fill="#6B7280"/>
<path d="M0 12.6C0 12.9713 0.1475 13.3274 0.41005 13.5899C0.672601 13.8525 1.0287 14 1.4 14H12.6C12.9713 14 13.3274 13.8525 13.5899 13.5899C13.8525 13.3274 14 12.9713 14 12.6V5.6H0V12.6ZM9.8 7.35C9.8 7.25717 9.83687 7.16815 9.90251 7.10251C9.96815 7.03687 10.0572 7 10.15 7H10.85C10.9428 7 11.0318 7.03687 11.0975 7.10251C11.1631 7.16815 11.2 7.25717 11.2 7.35V8.05C11.2 8.14283 11.1631 8.23185 11.0975 8.29749C11.0318 8.36312 10.9428 8.4 10.85 8.4H10.15C10.0572 8.4 9.96815 8.36312 9.90251 8.29749C9.83687 8.23185 9.8 8.14283 9.8 8.05V7.35ZM9.8 10.15C9.8 10.0572 9.83687 9.96815 9.90251 9.90251C9.96815 9.83687 10.0572 9.8 10.15 9.8H10.85C10.9428 9.8 11.0318 9.83687 11.0975 9.90251C11.1631 9.96815 11.2 10.0572 11.2 10.15V10.85C11.2 10.9428 11.1631 11.0318 11.0975 11.0975C11.0318 11.1631 10.9428 11.2 10.85 11.2H10.15C10.0572 11.2 9.96815 11.1631 9.90251 11.0975C9.83687 11.0318 9.8 10.9428 9.8 10.85V10.15ZM6.3 7.35C6.3 7.25717 6.33687 7.16815 6.40251 7.10251C6.46815 7.03687 6.55717 7 6.65 7H7.35C7.44283 7 7.53185 7.03687 7.59749 7.10251C7.66313 7.16815 7.7 7.25717 7.7 7.35V8.05C7.7 8.14283 7.66313 8.23185 7.59749 8.29749C7.53185 8.36312 7.44283 8.4 7.35 8.4H6.65C6.55717 8.4 6.46815 8.36312 6.40251 8.29749C6.33687 8.23185 6.3 8.14283 6.3 8.05V7.35ZM6.3 10.15C6.3 10.0572 6.33687 9.96815 6.40251 9.90251C6.46815 9.83687 6.55717 9.8 6.65 9.8H7.35C7.44283 9.8 7.53185 9.83687 7.59749 9.90251C7.66313 9.96815 7.7 10.0572 7.7 10.15V10.85C7.7 10.9428 7.66313 11.0318 7.59749 11.0975C7.53185 11.1631 7.44283 11.2 7.35 11.2H6.65C6.55717 11.2 6.46815 11.1631 6.40251 11.0975C6.33687 11.0318 6.3 10.9428 6.3 10.85V10.15ZM2.8 7.35C2.8 7.25717 2.83687 7.16815 2.90251 7.10251C2.96815 7.03687 3.05717 7 3.15 7H3.85C3.94283 7 4.03185 7.03687 4.09749 7.10251C4.16313 7.16815 4.2 7.25717 4.2 7.35V8.05C4.2 8.14283 4.16313 8.23185 4.09749 8.29749C4.03185 8.36312 3.94283 8.4 3.85 8.4H3.15C3.05717 8.4 2.96815 8.36312 2.90251 8.29749C2.83687 8.23185 2.8 8.14283 2.8 8.05V7.35ZM2.8 10.15C2.8 10.0572 2.83687 9.96815 2.90251 9.90251C2.96815 9.83687 3.05717 9.8 3.15 9.8H3.85C3.94283 9.8 4.03185 9.83687 4.09749 9.90251C4.16313 9.96815 4.2 10.0572 4.2 10.15V10.85C4.2 10.9428 4.16313 11.0318 4.09749 11.0975C4.03185 11.1631 3.94283 11.2 3.85 11.2H3.15C3.05717 11.2 2.96815 11.1631 2.90251 11.0975C2.83687 11.0318 2.8 10.9428 2.8 10.85V10.15Z" stroke="#6B7280" stroke-width="2" mask="url(#path-1-inside-1_1878_126215)"/>
<path d="M14 2.8C14 2.4287 13.8525 2.0726 13.5899 1.81005C13.3274 1.5475 12.9713 1.4 12.6 1.4H11.2V0.7C11.2 0.514348 11.1263 0.336301 10.995 0.205025C10.8637 0.0737498 10.6857 0 10.5 0C10.3143 0 10.1363 0.0737498 10.005 0.205025C9.87375 0.336301 9.8 0.514348 9.8 0.7V1.4H7.7V0.7C7.7 0.514348 7.62625 0.336301 7.49497 0.205025C7.3637 0.0737498 7.18565 0 7 0C6.81435 0 6.6363 0.0737498 6.50503 0.205025C6.37375 0.336301 6.3 0.514348 6.3 0.7V1.4H4.2V0.7C4.2 0.514348 4.12625 0.336301 3.99497 0.205025C3.8637 0.0737498 3.68565 0 3.5 0C3.31435 0 3.1363 0.0737498 3.00503 0.205025C2.87375 0.336301 2.8 0.514348 2.8 0.7V1.4H1.4C1.0287 1.4 0.672601 1.5475 0.41005 1.81005C0.1475 2.0726 0 2.4287 0 2.8V4.2H14V2.8Z" stroke="#6B7280" stroke-width="2" mask="url(#path-1-inside-1_1878_126215)"/>
</g>
</g>
<defs>
<clipPath id="clip0_1878_126215">
<rect width="14" height="14" fill="white"/>
</clipPath>
</defs>
</svg>
