<svg width="12" height="12" viewBox="0 0 12 12" fill="none" xmlns="http://www.w3.org/2000/svg">
<g id="chevron-double-right" clip-path="url(#clip0_5275_8617)">
<g id="Vector">
<path d="M7.00524 11.5C6.80769 11.5 6.61458 11.4355 6.45034 11.3148C6.2861 11.194 6.15808 11.0225 6.08249 10.8218C6.0069 10.621 5.98711 10.4002 6.02564 10.1871C6.06417 9.97399 6.15928 9.77825 6.29895 9.62461L9.58864 6.00675L6.29895 2.3889C6.20354 2.28755 6.12743 2.16632 6.07507 2.03228C6.02272 1.89824 5.99516 1.75407 5.99401 1.6082C5.99285 1.46232 6.01813 1.31765 6.06836 1.18263C6.11859 1.04761 6.19277 0.924942 6.28657 0.821787C6.38037 0.718632 6.49191 0.637054 6.61468 0.581812C6.73745 0.526571 6.869 0.498774 7.00164 0.500041C7.13429 0.501309 7.26538 0.531617 7.38726 0.589196C7.50914 0.646775 7.61937 0.730473 7.71153 0.835405L11.7075 5.23C11.8948 5.43603 12 5.71543 12 6.00675C12 6.29807 11.8948 6.57747 11.7075 6.7835L7.71153 11.1781C7.52422 11.3841 7.27017 11.4999 7.00524 11.5Z" fill="#9CA3AF"/>
<path d="M1.01127 11.5C0.813719 11.5 0.620615 11.4355 0.45637 11.3148C0.292126 11.194 0.164115 11.0225 0.0885212 10.8218C0.0129272 10.621 -0.00685615 10.4002 0.0316726 10.1871C0.0702014 9.97399 0.165313 9.77825 0.304982 9.62461L3.59467 6.00675L0.304982 2.3889C0.209567 2.28755 0.133462 2.16632 0.0811053 2.03228C0.0287489 1.89824 0.00119038 1.75407 3.77191e-05 1.6082C-0.00111494 1.46232 0.0241611 1.31765 0.0743915 1.18263C0.124622 1.04761 0.1988 0.924942 0.292599 0.821787C0.386397 0.718632 0.497937 0.637054 0.62071 0.581812C0.743482 0.526571 0.87503 0.498774 1.00768 0.500041C1.14032 0.501309 1.27141 0.531617 1.39329 0.589196C1.51517 0.646775 1.62541 0.730473 1.71756 0.835405L5.71354 5.23C5.90082 5.43603 6.00603 5.71543 6.00603 6.00675C6.00603 6.29807 5.90082 6.57747 5.71354 6.7835L1.71756 11.1781C1.53026 11.3841 1.2762 11.4999 1.01127 11.5Z" fill="#9CA3AF"/>
</g>
</g>
<defs>
<clipPath id="clip0_5275_8617">
<rect width="12" height="12" fill="white"/>
</clipPath>
</defs>
</svg>
