<svg width="12" height="12" viewBox="0 0 12 12" fill="none" xmlns="http://www.w3.org/2000/svg">
<g id="chevron-down">
<path id="Vector" d="M6.01288 9C5.72647 8.99994 5.45181 8.89476 5.24932 8.7076L0.929321 4.71577C0.82617 4.62372 0.743893 4.5136 0.687291 4.39184C0.630689 4.27009 0.600896 4.13914 0.59965 4.00663C0.598404 3.87412 0.62573 3.74271 0.680033 3.62006C0.734336 3.49742 0.81453 3.386 0.915934 3.2923C1.01734 3.19859 1.13792 3.12449 1.27065 3.07432C1.40338 3.02414 1.54559 2.99889 1.68899 3.00004C1.8324 3.00119 1.97411 3.02872 2.10588 3.08102C2.23764 3.13332 2.35681 3.20935 2.45644 3.30466L6.01288 6.59093L9.56932 3.30466C9.77301 3.12288 10.0458 3.02229 10.329 3.02456C10.6122 3.02684 10.883 3.13179 11.0833 3.31682C11.2835 3.50185 11.3971 3.75215 11.3996 4.01381C11.402 4.27547 11.2932 4.52756 11.0964 4.71577L6.77644 8.7076C6.57395 8.89476 6.29929 8.99994 6.01288 9V9Z" fill="#9CA3AF"/>
</g>
</svg>
