<svg width="12" height="12" viewBox="0 0 12 12" fill="none" xmlns="http://www.w3.org/2000/svg">
<g id="chevron-left">
<path id="Vector" d="M7.98974 11.3996C7.72508 11.3995 7.47128 11.2859 7.28416 11.0836L3.2922 6.76886C3.1051 6.56658 3 6.29226 3 6.00624C3 5.72021 3.1051 5.4459 3.2922 5.24361L7.28416 0.928916C7.37623 0.825892 7.48635 0.743716 7.60811 0.687184C7.72987 0.630651 7.86082 0.600895 7.99334 0.59965C8.12585 0.598406 8.25726 0.625698 8.37991 0.679934C8.50256 0.734171 8.61399 0.814266 8.70769 0.915546C8.8014 1.01683 8.8755 1.13726 8.92568 1.26983C8.97586 1.40239 9.00111 1.54443 8.99996 1.68766C8.99881 1.83088 8.97128 1.97243 8.91898 2.10403C8.86667 2.23563 8.79064 2.35466 8.69532 2.45416L5.40894 6.00624L8.69532 9.55831C8.83485 9.70917 8.92987 9.90135 8.96836 10.1106C9.00685 10.3198 8.98709 10.5366 8.91157 10.7337C8.83605 10.9308 8.70817 11.0992 8.54409 11.2177C8.38001 11.3363 8.1871 11.3996 7.98974 11.3996Z" fill="#6B7280"/>
</g>
</svg>
