<svg width="12" height="12" viewBox="0 0 12 12" fill="none" xmlns="http://www.w3.org/2000/svg">
<g id="chevron-right">
<path id="Vector" d="M4.01026 11.3996C3.8129 11.3996 3.61999 11.3363 3.45591 11.2177C3.29183 11.0992 3.16395 10.9308 3.08843 10.7337C3.01291 10.5366 2.99315 10.3198 3.03164 10.1106C3.07013 9.90135 3.16515 9.70917 3.30468 9.55831L6.59106 6.00624L3.30468 2.45416C3.20936 2.35466 3.13333 2.23563 3.08102 2.10403C3.02872 1.97243 3.00119 1.83088 3.00004 1.68766C2.99889 1.54443 3.02414 1.40239 3.07432 1.26983C3.1245 1.13726 3.1986 1.01683 3.29231 0.915546C3.38601 0.814266 3.49744 0.734171 3.62009 0.679934C3.74274 0.625698 3.87415 0.598406 4.00666 0.59965C4.13918 0.600895 4.27013 0.630651 4.39189 0.687184C4.51365 0.743716 4.62377 0.825892 4.71584 0.928916L8.7078 5.24361C8.8949 5.4459 9 5.72021 9 6.00624C9 6.29226 8.8949 6.56658 8.7078 6.76886L4.71584 11.0836C4.52872 11.2859 4.27492 11.3995 4.01026 11.3996Z" fill="#6B7280"/>
</g>
</svg>
