<svg width="13" height="12" viewBox="0 0 13 12" fill="none" xmlns="http://www.w3.org/2000/svg">
<path id="Subtract" fill-rule="evenodd" clip-rule="evenodd" d="M6.5 0C3.18629 0 0.5 2.68629 0.5 6C0.5 9.31371 3.18629 12 6.5 12C9.81371 12 12.5 9.31371 12.5 6C12.5 2.68629 9.81371 0 6.5 0ZM5.03033 3.46967C4.73744 3.17678 4.26256 3.17678 3.96967 3.46967C3.67678 3.76256 3.67678 4.23744 3.96967 4.53033L5.43934 6L3.96967 7.46967C3.67678 7.76256 3.67678 8.23744 3.96967 8.53033C4.26256 8.82322 4.73744 8.82322 5.03033 8.53033L6.5 7.06066L7.96967 8.53033C8.26256 8.82322 8.73744 8.82322 9.03033 8.53033C9.32322 8.23744 9.32322 7.76256 9.03033 7.46967L7.56066 6L9.03033 4.53033C9.32322 4.23744 9.32322 3.76256 9.03033 3.46967C8.73744 3.17678 8.26256 3.17678 7.96967 3.46967L6.5 4.93934L5.03033 3.46967Z" fill="#FF6666"/>
</svg>
