<svg width="39" height="28" viewBox="0 0 39 28" fill="none" xmlns="http://www.w3.org/2000/svg">
<rect x="0.939733" y="1.09574" width="37.393" height="25.8081" rx="0.902591" fill="#006FCF" stroke="#F3F3F3" stroke-width="0.257883"/>
<path fill-rule="evenodd" clip-rule="evenodd" d="M8.5119 19.7954V14.4294H14.5644L15.2138 15.224L15.8846 14.4294H37.8537V19.4253C37.8537 19.4253 37.2791 19.79 36.6147 19.7954H24.4499L23.7178 18.9495V19.7954H21.3186V18.3514C21.3186 18.3514 20.9909 18.553 20.2824 18.553H19.4658V19.7954H15.8333L15.1848 18.9837L14.5264 19.7954H8.5119ZM1.45996 10.385L2.82173 7.39795H5.17676L5.94958 9.07115V7.39795H8.8771L9.33716 8.60729L9.78317 7.39795H22.9247V8.00592C22.9247 8.00592 23.6155 7.39795 24.7509 7.39795L29.0148 7.41197L29.7743 9.06327V7.39795H32.2242L32.8985 8.34649V7.39795H35.3709V12.764H32.8985L32.2523 11.8124V12.764H28.6529L28.2909 11.9181H27.3232L26.9672 12.764H24.5261C23.5492 12.764 22.9247 12.1684 22.9247 12.1684V12.764H19.2442L18.5138 11.9181V12.764H4.82787L4.46615 11.9181H3.50158L3.14241 12.764H1.45996V10.385ZM1.46702 12.0774L3.30374 8.05946H4.69621L6.53118 12.0774H5.30904L4.9719 11.2728H3.00172L2.66282 12.0774H1.46702ZM4.58386 10.4004L3.98333 8.99443L3.38104 10.4004H4.58386ZM6.65755 12.0768V8.05883L8.35685 8.06477L9.34522 10.6553L10.3099 8.05883H11.9956V12.0768H10.928V9.11618L9.79632 12.0768H8.86002L7.72516 9.11618V12.0768H6.65755ZM12.7261 12.0768V8.05883H16.2099V8.95758H13.805V9.64485H16.1537V10.4907H13.805V11.2044H16.2099V12.0768H12.7261ZM16.8279 12.0774V8.05946H19.2037C19.991 8.05946 20.6963 8.51746 20.6963 9.36298C20.6963 10.0858 20.1016 10.5513 19.5251 10.5971L20.9298 12.0774H19.6252L18.3451 10.65H17.8956V12.0774H16.8279ZM19.1161 8.95804H17.8957V9.80392H19.1319C19.3459 9.80392 19.6218 9.64791 19.6218 9.38098C19.6218 9.1735 19.4089 8.95804 19.1161 8.95804ZM22.2222 12.0768H21.1321V8.05883H22.2222V12.0768ZM24.807 12.0768H24.5717C23.4332 12.0768 22.742 11.2329 22.742 10.0843C22.742 8.90739 23.4255 8.05883 24.8632 8.05883H26.0432V9.01045H24.82C24.2364 9.01045 23.8237 9.43897 23.8237 10.0942C23.8237 10.8723 24.2956 11.1992 24.9756 11.1992H25.2565L24.807 12.0768ZM25.2935 12.0774L27.1302 8.05946H28.5227L30.3577 12.0774H29.1355L28.7984 11.2728H26.8282L26.4893 12.0774H25.2935ZM28.4105 10.4004L27.8099 8.99443L27.2076 10.4004H28.4105ZM30.4823 12.0768V8.05883H31.8396L33.5727 10.5833V8.05883H34.6404V12.0768H33.3269L31.5499 9.48625V12.0768H30.4823ZM9.2423 19.1081V15.0902H12.7261V15.9889H10.3212V16.6762H12.6699V17.5221H10.3212V18.2358H12.7261V19.1081H9.2423ZM26.3129 19.1081V15.0902H29.7968V15.9889H27.3918V16.6762H29.7293V17.5221H27.3918V18.2358H29.7968V19.1081H26.3129ZM12.8613 19.1081L14.5575 17.1239L12.8209 15.0902H14.1659L15.2002 16.3474L16.2379 15.0902H17.5303L15.8165 17.0991L17.5159 19.1081H16.171L15.1668 17.8707L14.187 19.1081H12.8613ZM17.6428 19.1087V15.0908H20.0011C20.9687 15.0908 21.534 15.6776 21.534 16.4422C21.534 17.3653 20.8132 17.8399 19.8623 17.8399H18.7385V19.1087H17.6428ZM19.922 15.9994H18.7385V16.9246H19.9184C20.2303 16.9246 20.4487 16.7302 20.4487 16.462C20.4487 16.1766 20.2292 15.9994 19.922 15.9994ZM21.9976 19.1081V15.0902H24.3734C25.1606 15.0902 25.866 15.5482 25.866 16.3937C25.866 17.1165 25.2713 17.582 24.6948 17.6278L26.0995 19.1081H24.7949L23.5148 17.6807H23.0652V19.1081H21.9976ZM24.2857 15.9887H23.0654V16.8346H24.3016C24.5155 16.8346 24.7915 16.6786 24.7915 16.4116C24.7915 16.2042 24.5785 15.9887 24.2857 15.9887ZM30.2912 19.1081V18.2358H32.4278C32.744 18.2358 32.8809 18.075 32.8809 17.8988C32.8809 17.7298 32.7444 17.5591 32.4278 17.5591H31.4623C30.623 17.5591 30.1556 17.078 30.1556 16.3557C30.1556 15.7115 30.5837 15.0902 31.8308 15.0902H33.9099L33.4603 15.9942H31.6622C31.3185 15.9942 31.2127 16.1639 31.2127 16.326C31.2127 16.4925 31.3435 16.6762 31.606 16.6762H32.6175C33.5531 16.6762 33.959 17.1755 33.959 17.8294C33.959 18.5323 33.5066 19.1081 32.5665 19.1081H30.2912ZM34.0532 19.1081V18.2358H36.1899C36.506 18.2358 36.6429 18.075 36.6429 17.8988C36.6429 17.7298 36.5064 17.5591 36.1899 17.5591H35.2243C34.3851 17.5591 33.9177 17.078 33.9177 16.3557C33.9177 15.7115 34.3457 15.0902 35.5928 15.0902H37.6719L37.2224 15.9942H35.4243C35.0806 15.9942 34.9747 16.1639 34.9747 16.326C34.9747 16.4925 35.1055 16.6762 35.3681 16.6762H36.3795C37.3151 16.6762 37.7211 17.1755 37.7211 17.8294C37.7211 18.5323 37.2687 19.1081 36.3286 19.1081H34.0532Z" fill="white"/>
</svg>
