<svg width="40" height="24" viewBox="0 0 40 24" fill="none" xmlns="http://www.w3.org/2000/svg">
<path d="M25.5473 21.3521H15.0178V2.55469H25.5473V21.3521Z" fill="#FF5F00"/>
<path d="M15.6846 11.9554C15.6846 8.14228 17.4818 4.74565 20.2806 2.55672C18.2339 0.956068 15.6509 0.000694275 12.8437 0.000694275C6.19794 0.000694275 0.810791 5.35292 0.810791 11.9554C0.810791 18.5579 6.19794 23.9102 12.8437 23.9102C15.6509 23.9102 18.2339 22.9548 20.2806 21.3541C17.4818 19.1652 15.6846 15.7686 15.6846 11.9554Z" fill="#EB001B"/>
<path d="M39.7501 11.9554C39.7501 18.5579 34.3629 23.9102 27.7172 23.9102C24.91 23.9102 22.327 22.9548 20.2795 21.3541C23.0791 19.1652 24.8763 15.7686 24.8763 11.9554C24.8763 8.14228 23.0791 4.74565 20.2795 2.55672C22.327 0.956068 24.91 0.000694275 27.7172 0.000694275C34.3629 0.000694275 39.7501 5.35292 39.7501 11.9554Z" fill="#F79E1B"/>
</svg>
