<svg width="50" height="10" viewBox="0 0 50 10" fill="none" xmlns="http://www.w3.org/2000/svg">
<path fill-rule="evenodd" clip-rule="evenodd" d="M46.5172 0.810631C48.3503 0.810631 49.3584 1.65857 49.3584 3.26024C49.4501 4.48505 48.6252 5.52142 47.5254 5.70985L50 9.19584H48.0753L45.9673 5.80407H45.784V9.19584H44.226V0.810631H46.5172ZM45.784 4.67368H46.2422C47.2504 4.67368 47.7086 4.2026 47.7086 3.35465C47.7086 2.60093 47.2504 2.12985 46.2422 2.12985H45.784V4.67368ZM38.8185 9.19584H43.2178V7.7826H40.3766V5.52142H43.1262V4.10818H40.3766V2.22387H43.2178V0.810631H38.8185V9.19584ZM34.2358 6.46358L32.1278 0.810631H30.4781L33.8692 9.38427H34.694L38.0852 0.810631H36.4354L34.2358 6.46358ZM15.6306 5.05031C15.6306 7.4057 17.4637 9.38424 19.755 9.38424C20.4882 9.38424 21.1297 9.1958 21.7713 8.91316V7.02884C21.313 7.59414 20.6715 7.971 19.9383 7.971C18.4718 7.971 17.2804 6.84041 17.2804 5.33296V5.14452C17.1887 3.63707 18.3802 2.31805 19.8466 2.22383C20.5798 2.22383 21.313 2.6007 21.7713 3.16599V1.28168C21.2214 0.904812 20.4882 0.810597 19.8466 0.810597C17.4637 0.622165 15.6306 2.6007 15.6306 5.05031ZM12.7894 4.01393C11.8729 3.63707 11.598 3.44864 11.598 2.97756C11.6896 2.41226 12.1479 1.94118 12.6978 2.0354C13.156 2.0354 13.6143 2.31805 13.9809 2.69491L14.8058 1.56432C14.1642 0.999026 13.3393 0.622162 12.5145 0.622162C11.2314 0.527946 10.1315 1.56432 10.0399 2.88334V2.97756C10.0399 4.10815 10.4981 4.76766 11.9646 5.23874C12.3312 5.33295 12.6978 5.52139 13.0644 5.70982C13.3393 5.89825 13.5226 6.1809 13.5226 6.55776C13.5226 7.21727 12.9727 7.78257 12.4228 7.78257H12.3312C11.598 7.78257 10.9564 7.31149 10.6814 6.65198L9.67327 7.68835C10.2232 8.72472 11.323 9.29002 12.4228 9.29002C13.8893 9.38424 15.0807 8.25365 15.1724 6.74619V6.46354C15.0807 5.33295 14.6225 4.76766 12.7894 4.01393ZM7.47365 9.19584H9.03173V0.810631H7.47365V9.19584ZM0.233154 0.810631H2.52445H2.9827C5.18234 0.904846 6.92373 2.78916 6.83207 5.05034C6.83207 6.27515 6.28216 7.40574 5.36565 8.25368C4.54078 8.91319 3.53261 9.29006 2.52445 9.19584H0.233154V0.810631ZM2.24954 7.78269C2.98275 7.87691 3.80762 7.59426 4.35753 7.12318C4.90744 6.55788 5.18239 5.80416 5.18239 4.95621C5.18239 4.20249 4.90744 3.44876 4.35753 2.88346C3.80762 2.41239 2.98275 2.12974 2.24954 2.22395H1.79128V7.78269H2.24954Z" fill="black"/>
<path fill-rule="evenodd" clip-rule="evenodd" d="M26.4455 0.616211C24.1542 0.616211 22.2295 2.50053 22.2295 4.95014C22.2295 7.30554 24.0625 9.28407 26.4455 9.37828C28.8284 9.4725 30.6614 7.49397 30.7531 5.04435C30.6614 2.59474 28.8284 0.616211 26.4455 0.616211V0.616211Z" fill="#FD6020"/>
</svg>
