<svg width="14" height="13" viewBox="0 0 14 13" fill="none" xmlns="http://www.w3.org/2000/svg">
<path d="M12.6 0.666992H1.4C1.0287 0.666992 0.672601 0.830881 0.41005 1.1226C0.1475 1.41433 0 1.80999 0 2.22255V10.7781C0 11.1907 0.1475 11.5863 0.41005 11.878C0.672601 12.1698 1.0287 12.3337 1.4 12.3337H12.6C12.9713 12.3337 13.3274 12.1698 13.5899 11.878C13.8525 11.5863 14 11.1907 14 10.7781V2.22255C14 1.80999 13.8525 1.41433 13.5899 1.1226C13.3274 0.830881 12.9713 0.666992 12.6 0.666992ZM12.2171 2.22255L7.0301 7.1101L1.7892 2.22255H12.2171ZM1.4 10.7781V3.89088L6.16 8.32421C6.3995 8.52436 6.69122 8.63223 6.9909 8.63144C7.30902 8.63004 7.61801 8.51314 7.8708 8.29855L12.6 3.89088V10.7781H1.4Z" fill="#6B7280"/>
</svg>
