<svg width="12" height="13" viewBox="0 0 12 13" fill="none" xmlns="http://www.w3.org/2000/svg">
<path d="M10.667 4.75033H10.0837V1.83366C10.0837 1.52424 9.96074 1.22749 9.74195 1.0087C9.52316 0.789908 9.22641 0.666992 8.91699 0.666992H3.08366C2.77424 0.666992 2.47749 0.789908 2.2587 1.0087C2.03991 1.22749 1.91699 1.52424 1.91699 1.83366V4.75033H1.33366C1.02424 4.75033 0.727493 4.87324 0.508701 5.09203C0.289908 5.31083 0.166992 5.60757 0.166992 5.91699V9.41699C0.166992 9.72641 0.289908 10.0232 0.508701 10.2419C0.727493 10.4607 1.02424 10.5837 1.33366 10.5837H1.91699V11.167C1.91699 11.4764 2.03991 11.7732 2.2587 11.9919C2.47749 12.2107 2.77424 12.3337 3.08366 12.3337H8.91699C9.22641 12.3337 9.52316 12.2107 9.74195 11.9919C9.96074 11.7732 10.0837 11.4764 10.0837 11.167V10.5837H10.667C10.9764 10.5837 11.2732 10.4607 11.4919 10.2419C11.7107 10.0232 11.8337 9.72641 11.8337 9.41699V5.91699C11.8337 5.60757 11.7107 5.31083 11.4919 5.09203C11.2732 4.87324 10.9764 4.75033 10.667 4.75033ZM3.08366 1.83366H8.91699V4.75033H3.08366V1.83366ZM3.08366 11.167V8.83366H8.91699V11.167H3.08366ZM10.0837 9.41699V8.25033C10.0837 8.09562 10.0222 7.94724 9.9128 7.83785C9.80341 7.72845 9.65504 7.66699 9.50033 7.66699H2.50033C2.34562 7.66699 2.19724 7.72845 2.08785 7.83785C1.97845 7.94724 1.91699 8.09562 1.91699 8.25033V9.41699H1.33366V5.91699H10.667V9.41699H10.0837Z" fill="#6B7280"/>
</svg>
