<svg width="13" height="12" viewBox="0 0 13 12" fill="none" xmlns="http://www.w3.org/2000/svg">
<path id="Subtract" fill-rule="evenodd" clip-rule="evenodd" d="M6.5 12C9.81371 12 12.5 9.31371 12.5 6C12.5 2.68629 9.81371 0 6.5 0C3.18629 0 0.5 2.68629 0.5 6C0.5 9.31371 3.18629 12 6.5 12ZM8.28016 3.05431C8.81788 3.24872 9.23567 3.66649 9.43007 4.20421C9.46302 4.2952 9.50185 4.4025 9.51601 4.49683C9.53271 4.60828 9.52161 4.71331 9.47976 4.82976C9.39016 5.07912 9.1894 5.19056 8.96814 5.31337L8.96813 5.31338L8.53185 5.55667C8.37406 5.64467 8.26991 5.70304 8.19569 5.75436C8.12345 5.8043 8.10293 5.83233 8.0944 5.84888C8.08988 5.85759 8.07585 5.90008 8.07954 6.03805C8.08302 6.16839 8.09994 6.34516 8.12419 6.59673C8.16333 7.00233 8.09603 7.40415 7.86197 7.77843L7.86175 7.77878C7.82228 7.84195 7.7727 7.92131 7.71729 7.98033C7.65172 8.05021 7.57622 8.0996 7.47892 8.13901C7.37991 8.17913 7.28982 8.19538 7.19262 8.19104C7.10991 8.18735 7.01496 8.16575 6.9357 8.14772C6.49198 8.04697 6.06302 7.83186 5.68475 7.5441L4.33934 8.88951C4.14108 9.08777 3.81963 9.08777 3.62136 8.88952C3.42309 8.69126 3.42309 8.36979 3.62136 8.17153L4.96329 6.82959C4.66399 6.44409 4.44006 6.00417 4.33665 5.5487C4.31863 5.46947 4.29703 5.37451 4.29335 5.29182C4.28902 5.19461 4.30529 5.10451 4.34544 5.00548C4.38488 4.9082 4.43429 4.83266 4.5042 4.76711C4.56337 4.71163 4.64292 4.66199 4.70614 4.62254C5.07521 4.39197 5.47376 4.32084 5.8763 4.35644C6.13332 4.37917 6.31452 4.39508 6.44775 4.39786L6.47288 4.3985C6.53362 4.40021 6.60239 4.40214 6.64046 4.38232C6.65655 4.37392 6.68452 4.35334 6.73468 4.2806C6.78603 4.2061 6.84461 4.10155 6.93274 3.94353L7.17102 3.51626C7.29382 3.29499 7.40526 3.09422 7.65462 3.00463C7.77108 2.96279 7.87609 2.95168 7.98754 2.96839C8.08184 2.98253 8.18908 3.02134 8.28004 3.05427L8.28016 3.05431Z" fill="#FF922E"/>
</svg>
