<svg width="14" height="13" viewBox="0 0 14 13" fill="none" xmlns="http://www.w3.org/2000/svg">
<path d="M9.62541 8.16707H2.98662L4.11817 7.08959C4.46035 6.76376 4.46035 6.2371 4.11817 5.91127C3.776 5.58545 3.22291 5.58545 2.88073 5.91127L0.255321 8.41123C0.174809 8.48789 0.110924 8.58039 0.0662916 8.68206C-0.0220972 8.88622 -0.0220972 9.11538 0.0662916 9.31871C0.110924 9.42038 0.174809 9.51288 0.255321 9.58954L2.88073 12.0895C3.05138 12.252 3.27542 12.3337 3.49945 12.3337C3.72349 12.3337 3.94752 12.252 4.11817 12.0895C4.46035 11.7637 4.46035 11.237 4.11817 10.9112L2.98662 9.8337H9.62541C10.1085 9.8337 10.5005 9.46038 10.5005 9.00038C10.5005 8.54039 10.1085 8.16707 9.62541 8.16707Z" fill="#6B7280"/>
<path d="M13.9337 3.68215C13.8891 3.58048 13.8252 3.48798 13.7447 3.41132L11.1193 0.911363C10.7771 0.585535 10.224 0.585535 9.88183 0.911363C9.53965 1.23719 9.53965 1.76385 9.88183 2.08967L11.0134 3.16716H4.37459C3.89151 3.16716 3.49945 3.54048 3.49945 4.00047C3.49945 4.46047 3.89151 4.83379 4.37459 4.83379H11.0134L9.88183 5.91127C9.53965 6.2371 9.53965 6.76376 9.88183 7.08959C10.0525 7.25208 10.2765 7.33375 10.5005 7.33375C10.7246 7.33375 10.9486 7.25208 11.1193 7.08959L13.7447 4.58963C13.8252 4.51296 13.8891 4.42047 13.9337 4.3188C14.0221 4.11547 14.0221 3.88548 13.9337 3.68215Z" fill="#6B7280"/>
</svg>
