<svg width="20" height="20" viewBox="0 0 20 20" fill="none" xmlns="http://www.w3.org/2000/svg">
<path d="M17.2891 6C17.0128 6 16.7478 6.10536 16.5525 6.29289C16.3571 6.48043 16.2474 6.73478 16.2474 7V10C16.2474 11.0609 15.8084 12.0783 15.027 12.8284C14.2456 13.5786 13.1858 14 12.0807 14H7.91406C6.80899 14 5.74919 13.5786 4.96778 12.8284C4.18638 12.0783 3.7474 11.0609 3.7474 10V7C3.7474 6.73478 3.63765 6.48043 3.4423 6.29289C3.24695 6.10536 2.982 6 2.70573 6C2.42946 6 2.16451 6.10536 1.96916 6.29289C1.77381 6.48043 1.66406 6.73478 1.66406 7V10C1.66572 11.5908 2.32473 13.116 3.49647 14.2409C4.66822 15.3658 6.25697 15.9984 7.91406 16H8.95573V18H6.8724C6.59613 18 6.33118 18.1054 6.13583 18.2929C5.94048 18.4804 5.83073 18.7348 5.83073 19C5.83073 19.2652 5.94048 19.5196 6.13583 19.7071C6.33118 19.8946 6.59613 20 6.8724 20H13.1224C13.3987 20 13.6636 19.8946 13.859 19.7071C14.0543 19.5196 14.1641 19.2652 14.1641 19C14.1641 18.7348 14.0543 18.4804 13.859 18.2929C13.6636 18.1054 13.3987 18 13.1224 18H11.0391V16H12.0807C13.7378 15.9984 15.3266 15.3658 16.4983 14.2409C17.6701 13.116 18.3291 11.5908 18.3307 10V7C18.3307 6.73478 18.221 6.48043 18.0256 6.29289C17.8303 6.10536 17.5653 6 17.2891 6Z" fill="#1F2A37"/>
<path d="M8.95573 13H11.0391C12.1441 13 13.2039 12.5786 13.9853 11.8284C14.7667 11.0783 15.2057 10.0609 15.2057 9V4C15.2057 2.93913 14.7667 1.92172 13.9853 1.17157C13.2039 0.421427 12.1441 0 11.0391 0H8.95573C7.85066 0 6.79085 0.421427 6.00945 1.17157C5.22805 1.92172 4.78906 2.93913 4.78906 4V9C4.78906 10.0609 5.22805 11.0783 6.00945 11.8284C6.79085 12.5786 7.85066 13 8.95573 13ZM6.8724 4C6.8724 3.46957 7.09189 2.96086 7.48259 2.58579C7.87329 2.21071 8.40319 2 8.95573 2H11.0391C11.5916 2 12.1215 2.21071 12.5122 2.58579C12.9029 2.96086 13.1224 3.46957 13.1224 4V9C13.1224 9.53043 12.9029 10.0391 12.5122 10.4142C12.1215 10.7893 11.5916 11 11.0391 11H8.95573C8.40319 11 7.87329 10.7893 7.48259 10.4142C7.09189 10.0391 6.8724 9.53043 6.8724 9V4Z" fill="#1F2A37"/>
</svg>
