<svg width="56" height="56" viewBox="0 0 56 56" fill="none" xmlns="http://www.w3.org/2000/svg">
<g id="Alert icon">
<path id="Vector" fill-rule="evenodd" clip-rule="evenodd" d="M33.2058 6C30.8921 2 25.1079 2 22.7942 6L0.814303 44C-1.49937 48 1.39273 53 6.02008 53H49.9799C54.6073 53 57.4994 48 55.1857 44L33.2058 6ZM28.1687 19C26.2321 19 24.6622 20.567 24.6622 22.5V31.5C24.6622 33.433 26.2321 35 28.1687 35C30.1053 35 31.6752 33.433 31.6752 31.5V22.5C31.6752 20.567 30.1053 19 28.1687 19ZM28.1687 38C26.2321 38 24.6622 39.567 24.6622 41.5C24.6622 43.433 26.2321 45 28.1687 45C30.1053 45 31.6752 43.433 31.6752 41.5C31.6752 39.567 30.1053 38 28.1687 38Z" fill="#FF922E"/>
</g>
</svg>
