<svg width="20" height="20" viewBox="0 0 20 20" fill="none" xmlns="http://www.w3.org/2000/svg">
<path d="M4.51595 8.17238L3.71121 9.01723H4.87799H18.5715C18.8097 9.01723 19.0434 9.11634 19.2196 9.30133C19.3966 9.48716 19.5 9.74416 19.5 10.0169C19.5 10.2897 19.3966 10.5467 19.2196 10.7325C19.0434 10.9175 18.8097 11.0166 18.5715 11.0166H4.87799H3.71191L4.5158 11.8613L7.78812 15.2998C7.9587 15.4866 8.0567 15.7409 8.05448 16.0092C8.05225 16.2788 7.94905 16.5322 7.77408 16.7159C7.59986 16.8988 7.3694 16.9978 7.13388 17C6.8996 17.0021 6.66898 16.9083 6.49238 16.7307L0.781718 10.7354L0.781282 10.7349C0.693585 10.6431 0.62279 10.5327 0.574079 10.4094L0.109083 10.5932L0.574079 10.4094C0.525355 10.2862 0.5 10.1532 0.5 10.0184C0.5 9.88364 0.525356 9.75071 0.574079 9.62743C0.622791 9.50419 0.693586 9.39379 0.781283 9.30195L0.781718 9.3015L6.49568 3.30269L6.49574 3.30275L6.50161 3.29636C6.58855 3.20185 6.69122 3.1279 6.80287 3.07755C6.91446 3.02722 7.03351 3.00113 7.15328 3.00004C7.27305 2.99894 7.39244 3.02286 7.50472 3.07109C7.61707 3.11935 7.72081 3.19132 7.80919 3.28411C7.89761 3.37694 7.96878 3.48867 8.01738 3.61337C8.06599 3.7381 8.09072 3.87253 8.08959 4.00859C8.08846 4.14466 8.06151 4.27855 8.01089 4.40227L8.47365 4.59162L8.01089 4.40227C7.96028 4.52596 7.88735 4.63624 7.79752 4.72733L7.79747 4.72727L7.79148 4.73356L4.51595 8.17238Z" fill="#0284FE" stroke="#0284FE"/>
</svg>
