<svg width="14" height="15" viewBox="0 0 14 15" fill="none" xmlns="http://www.w3.org/2000/svg">
<path d="M9.62541 9.16707H2.98662L4.11817 8.08959C4.46035 7.76376 4.46035 7.2371 4.11817 6.91127C3.776 6.58545 3.22291 6.58545 2.88073 6.91127L0.255321 9.41123C0.174809 9.48789 0.110924 9.58039 0.0662916 9.68206C-0.0220972 9.88622 -0.0220972 10.1154 0.0662916 10.3187C0.110924 10.4204 0.174809 10.5129 0.255321 10.5895L2.88073 13.0895C3.05138 13.252 3.27542 13.3337 3.49945 13.3337C3.72349 13.3337 3.94752 13.252 4.11817 13.0895C4.46035 12.7637 4.46035 12.237 4.11817 11.9112L2.98662 10.8337H9.62541C10.1085 10.8337 10.5005 10.4604 10.5005 10.0004C10.5005 9.54039 10.1085 9.16707 9.62541 9.16707Z" fill="#6B7280"/>
<path d="M13.9337 4.68215C13.8891 4.58048 13.8252 4.48798 13.7447 4.41132L11.1193 1.91136C10.7771 1.58554 10.224 1.58554 9.88183 1.91136C9.53965 2.23719 9.53965 2.76385 9.88183 3.08967L11.0134 4.16716H4.37459C3.89151 4.16716 3.49945 4.54048 3.49945 5.00047C3.49945 5.46047 3.89151 5.83379 4.37459 5.83379H11.0134L9.88183 6.91127C9.53965 7.2371 9.53965 7.76376 9.88183 8.08959C10.0525 8.25208 10.2765 8.33375 10.5005 8.33375C10.7246 8.33375 10.9486 8.25208 11.1193 8.08959L13.7447 5.58963C13.8252 5.51296 13.8891 5.42047 13.9337 5.3188C14.0221 5.11547 14.0221 4.88548 13.9337 4.68215Z" fill="#6B7280"/>
</svg>
