<svg width="56" height="56" viewBox="0 0 56 56" fill="none" xmlns="http://www.w3.org/2000/svg">
<g id="attachment-square">
<path id="Vector" fill-rule="evenodd" clip-rule="evenodd" d="M28.1563 4.06505e-07C34.1406 -2.69106e-05 38.8411 -5.41385e-05 42.5108 0.49332C46.2713 0.998931 49.2551 2.05621 51.5995 4.40053C53.9438 6.74489 55.001 9.72862 55.5067 13.4892C56 17.1591 56 21.8595 56 27.8437V28.1563C56 34.1406 56 38.8411 55.5067 42.5108C55.001 46.2713 53.9438 49.2551 51.5995 51.5995C49.2551 53.9438 46.2713 55.001 42.5108 55.5067C38.8411 56 34.1406 56 28.1563 56H27.8437C21.8594 56 17.1591 56 13.4892 55.5067C9.72862 55.001 6.74489 53.9438 4.40053 51.5995C2.05621 49.2551 0.998931 46.2713 0.49332 42.5108C-5.41385e-05 38.8411 -2.69106e-05 34.1406 4.06505e-07 28.1563V27.8437C-2.69106e-05 21.8594 -5.41385e-05 17.1591 0.49332 13.4892C0.998931 9.72862 2.05621 6.74489 4.40053 4.40053C6.74489 2.05621 9.72862 0.998931 13.4892 0.49332C17.1591 -5.41385e-05 21.8594 -2.69106e-05 27.8437 4.06505e-07H28.1563ZM24.2078 17.7315C22.4195 15.9431 19.5199 15.9431 17.7315 17.7315C15.9431 19.5199 15.9431 22.4195 17.7315 24.2078L20.075 26.5514C20.8751 27.3515 20.8751 28.6485 20.075 29.4486C19.2749 30.2487 17.9777 30.2487 17.1775 29.4486L14.8341 27.1054C11.4455 23.7167 11.4455 18.2227 14.8341 14.8341C18.2227 11.4455 23.7167 11.4455 27.1054 14.8341L41.166 28.8946C44.5544 32.2833 44.5544 37.7773 41.166 41.166C37.7773 44.5544 32.2833 44.5544 28.8946 41.166L23.6219 35.8933C22.3021 34.5733 21.6579 32.9865 21.7239 31.3824C21.7884 29.8152 22.5233 28.4316 23.5823 27.4608C25.7614 25.4625 29.3907 25.1273 32.1803 27.9172L34.912 30.6489C35.7122 31.4491 35.7122 32.7461 34.912 33.5462C34.1119 34.3463 32.8149 34.3463 32.0148 33.5462L29.2831 30.8145C28.6346 30.1662 28.0434 29.9955 27.6075 29.9909C27.1414 29.9857 26.6921 30.1684 26.3514 30.4807C26.0097 30.7943 25.8332 31.1841 25.8179 31.5509C25.8045 31.8807 25.9124 32.3888 26.5194 32.9957L31.7922 38.2685C33.5806 40.0569 36.48 40.0569 38.2685 38.2685C40.0569 36.48 40.0569 33.5806 38.2685 31.7922L24.2078 17.7315Z" fill="#0284FE"/>
</g>
</svg>
