<svg width="12" height="13" viewBox="0 0 12 13" fill="none" xmlns="http://www.w3.org/2000/svg">
<g id="cart-plus" clip-path="url(#clip0_3032_81)">
<path id="Vector" d="M10.7127 7.26355L11.9758 3.06408C12.0026 2.9748 12.0072 2.88083 11.9893 2.78958C11.9713 2.69832 11.9313 2.61227 11.8724 2.53818C11.8136 2.4641 11.7374 2.40401 11.6499 2.36264C11.5624 2.32127 11.466 2.29975 11.3683 2.29977H3.01259L2.6368 0.946944C2.60124 0.818847 2.52204 0.705535 2.41156 0.624684C2.30108 0.543834 2.16554 0.499992 2.02608 0.5H0.63157C0.464067 0.5 0.303425 0.563206 0.184983 0.675714C0.0665402 0.788222 0 0.940815 0 1.09992C0 1.25903 0.0665402 1.41163 0.184983 1.52414C0.303425 1.63664 0.464067 1.69985 0.63157 1.69985H1.53977L1.91871 3.05268V3.05868V3.06408L3.18185 7.26355L3.653 9.05493C3.34109 9.1863 3.07231 9.39523 2.87505 9.65968C2.67778 9.92412 2.55935 10.2343 2.53226 10.5573C2.50517 10.8804 2.57043 11.2044 2.72114 11.4952C2.87185 11.786 3.10242 12.0327 3.3885 12.2093C3.67459 12.3859 4.00557 12.4859 4.3465 12.4986C4.68744 12.5114 5.02566 12.4364 5.32547 12.2817C5.62528 12.127 5.87555 11.8982 6.04984 11.6196C6.22413 11.341 6.31598 11.0228 6.3157 10.6987C6.31361 10.4939 6.27429 10.2909 6.19949 10.0988H7.69505C7.62025 10.2909 7.58093 10.4939 7.57884 10.6987C7.57884 11.0547 7.68996 11.4027 7.89816 11.6986C8.10635 11.9946 8.40226 12.2253 8.74848 12.3615C9.09469 12.4977 9.47565 12.5334 9.84319 12.4639C10.2107 12.3945 10.5483 12.2231 10.8133 11.9714C11.0783 11.7197 11.2587 11.399 11.3319 11.0498C11.405 10.7007 11.3674 10.3388 11.224 10.01C11.0806 9.68111 10.8378 9.40003 10.5262 9.20226C10.2146 9.0045 9.84829 8.89895 9.47355 8.89895H4.91361L4.59783 7.6991H10.1051C10.2425 7.69913 10.3761 7.65663 10.4857 7.57804C10.5954 7.49944 10.6751 7.38903 10.7127 7.26355ZM9.47355 10.0988C9.59846 10.0988 9.72057 10.134 9.82443 10.1999C9.92829 10.2658 10.0092 10.3595 10.057 10.4691C10.1048 10.5788 10.1174 10.6994 10.093 10.8158C10.0686 10.9321 10.0085 11.039 9.92014 11.1229C9.83181 11.2068 9.71928 11.264 9.59676 11.2871C9.47425 11.3103 9.34726 11.2984 9.23186 11.253C9.11645 11.2076 9.01782 11.1307 8.94842 11.032C8.87902 10.9334 8.84198 10.8174 8.84198 10.6987C8.84198 10.5396 8.90852 10.387 9.02696 10.2745C9.1454 10.162 9.30605 10.0988 9.47355 10.0988ZM5.05256 10.6987C5.05256 10.8174 5.01552 10.9334 4.94612 11.032C4.87672 11.1307 4.77809 11.2076 4.66268 11.253C4.54728 11.2984 4.42029 11.3103 4.29778 11.2871C4.17526 11.264 4.06273 11.2068 3.9744 11.1229C3.88608 11.039 3.82592 10.9321 3.80156 10.8158C3.77719 10.6994 3.78969 10.5788 3.8375 10.4691C3.8853 10.3595 3.96625 10.2658 4.07011 10.1999C4.17397 10.134 4.29608 10.0988 4.42099 10.0988C4.58849 10.0988 4.74913 10.162 4.86758 10.2745C4.98602 10.387 5.05256 10.5396 5.05256 10.6987ZM8.21041 5.2994H7.57884V5.89932C7.57884 6.05843 7.5123 6.21103 7.39386 6.32353C7.27541 6.43604 7.11477 6.49925 6.94727 6.49925C6.77977 6.49925 6.61912 6.43604 6.50068 6.32353C6.38224 6.21103 6.3157 6.05843 6.3157 5.89932V5.2994H5.68413C5.51663 5.2994 5.35599 5.23619 5.23754 5.12368C5.1191 5.01118 5.05256 4.85858 5.05256 4.69947C5.05256 4.54036 5.1191 4.38777 5.23754 4.27526C5.35599 4.16276 5.51663 4.09955 5.68413 4.09955H6.3157V3.49962C6.3157 3.34051 6.38224 3.18792 6.50068 3.07541C6.61912 2.96291 6.77977 2.8997 6.94727 2.8997C7.11477 2.8997 7.27541 2.96291 7.39386 3.07541C7.5123 3.18792 7.57884 3.34051 7.57884 3.49962V4.09955H8.21041C8.37791 4.09955 8.53855 4.16276 8.657 4.27526C8.77544 4.38777 8.84198 4.54036 8.84198 4.69947C8.84198 4.85858 8.77544 5.01118 8.657 5.12368C8.53855 5.23619 8.37791 5.2994 8.21041 5.2994Z" fill="white"/>
</g>
<defs>
<clipPath id="clip0_3032_81">
<rect width="12" height="12" fill="white" transform="translate(0 0.5)"/>
</clipPath>
</defs>
</svg>
