<svg width="30" height="30" viewBox="0 0 30 30" fill="none" xmlns="http://www.w3.org/2000/svg">
<path fill-rule="evenodd" clip-rule="evenodd" d="M0.667969 15.0003C0.667969 7.08424 7.08522 0.666992 15.0013 0.666992C22.9173 0.666992 29.3346 7.08424 29.3346 15.0003C29.3346 22.9163 22.9173 29.3337 15.0013 29.3337C7.08521 29.3337 0.667969 22.9163 0.667969 15.0003ZM15.0013 2.66699C8.18979 2.66699 2.66797 8.18881 2.66797 15.0003C2.66797 21.8118 8.18979 27.3337 15.0013 27.3337C21.8128 27.3337 27.3346 21.8118 27.3346 15.0003C27.3346 8.18881 21.8128 2.66699 15.0013 2.66699ZM15.1993 12.7003C15.4917 12.7396 15.8653 12.8407 16.1797 13.1551C16.4941 13.4695 16.5953 13.843 16.6346 14.1355C16.6682 14.3852 16.6681 14.6809 16.668 14.9544L16.668 15.0003V21.667C16.668 22.2193 16.2203 22.667 15.668 22.667C15.1157 22.667 14.668 22.2193 14.668 21.667V15.0003C14.668 14.8682 14.6679 14.7611 14.6664 14.6685C14.5738 14.667 14.4667 14.667 14.3346 14.667C13.7823 14.667 13.3346 14.2193 13.3346 13.667C13.3346 13.1147 13.7823 12.667 14.3346 12.667L14.3806 12.667H14.3806C14.6541 12.6669 14.9498 12.6668 15.1993 12.7003ZM15.3346 6.83366C14.5062 6.83366 13.8346 7.50523 13.8346 8.33366C13.8346 9.16209 14.5062 9.83366 15.3346 9.83366H15.3466C16.1751 9.83366 16.8466 9.16209 16.8466 8.33366C16.8466 7.50523 16.1751 6.83366 15.3466 6.83366H15.3346Z" fill="black"/>
</svg>
