<svg width="48" height="48" viewBox="0 0 48 48" fill="none" xmlns="http://www.w3.org/2000/svg">
    <path d="M0 8C0 3.58172 3.58172 0 8 0H40C44.4183 0 48 3.58172 48 8V40C48 44.4183 44.4183 48 40 48H8C3.58172 48 0 44.4183 0 40V8Z" fill="#15A033" fill-opacity="0.15"/>
    <path d="M32.8404 34H13.8946C13.3921 34 12.9102 33.8025 12.5549 33.4508C12.1996 33.0992 12 32.6223 12 32.125V15.875C12 15.3777 12.1996 14.9008 12.5549 14.5492C12.9102 14.1975 13.3921 14 13.8946 14C14.3971 14 14.8789 14.1975 15.2342 14.5492C15.5896 14.9008 15.7892 15.3777 15.7892 15.875V30.25H32.8404C33.3428 30.25 33.8247 30.4475 34.18 30.7992C34.5353 31.1508 34.735 31.6277 34.735 32.125C34.735 32.6223 34.5353 33.0992 34.18 33.4508C33.8247 33.8025 33.3428 34 32.8404 34Z" fill="#15A033"/>
    <path d="M18.9468 29C18.5949 29 18.25 28.903 17.9508 28.72C17.6515 28.5369 17.4096 28.275 17.2522 27.9635C17.0949 27.6521 17.0283 27.3034 17.0599 26.9566C17.0915 26.6098 17.22 26.2786 17.4311 26L21.2203 21C21.5109 20.6166 21.9388 20.3579 22.4161 20.277C22.8934 20.1961 23.3839 20.2992 23.7868 20.565L25.9226 21.9737L28.69 17.4113C28.8218 17.1937 28.9969 17.0048 29.2047 16.8561C29.4124 16.7075 29.6485 16.6021 29.8986 16.5463C30.1487 16.4906 30.4076 16.4856 30.6597 16.5318C30.9118 16.578 31.1518 16.6743 31.3651 16.815L35.1543 19.315C35.573 19.5908 35.8639 20.02 35.9629 20.508C36.0619 20.9961 35.9609 21.5031 35.6822 21.9175C35.4035 22.3319 34.9699 22.6198 34.4767 22.7177C33.9836 22.8157 33.4713 22.7158 33.0526 22.44L30.9167 21.0312L28.1494 25.5938C28.0176 25.8113 27.8425 26.0002 27.6347 26.1489C27.427 26.2975 27.1909 26.4029 26.9408 26.4587C26.6907 26.5144 26.4318 26.5194 26.1797 26.4732C25.9276 26.427 25.6876 26.3307 25.4742 26.19L23.1768 24.6737L20.4625 28.25C20.286 28.4829 20.0571 28.6719 19.7941 28.8021C19.531 28.9322 19.2409 29 18.9468 29Z" fill="#15A033"/>
</svg>