<svg width="24" height="24" viewBox="0 0 24 24" fill="none" xmlns="http://www.w3.org/2000/svg">
<path d="M10.2892 21.9609H9.39111C6.14261 21.9609 4.51836 21.9609 3.50918 20.9358C2.5 19.9106 2.5 18.2607 2.5 14.9609V9.96094C2.5 6.66111 2.5 5.01119 3.50918 3.98607C4.51836 2.96094 6.14261 2.96094 9.39111 2.96094H12.3444C15.5929 2.96094 17.4907 3.01612 18.5 4.04125C19.5092 5.06637 19.5 6.66111 19.5 9.96094V11.1473" stroke="#252B37" stroke-width="1.5" stroke-linecap="round" stroke-linejoin="round"/>
<path d="M7 15H11M7 10H15" stroke="#252B37" stroke-width="1.5" stroke-linecap="round"/>
<path opacity="0.93" d="M20.7598 14.8785C19.8544 13.8641 19.3112 13.9245 18.7076 14.1056C18.2851 14.166 16.8365 15.8568 16.2329 16.3952C15.2419 17.3743 14.2464 18.3823 14.1807 18.5138C13.9931 18.8188 13.8186 19.3592 13.7341 19.963C13.5771 20.8688 13.3507 21.8885 13.6375 21.9759C13.9242 22.0632 14.7239 21.8954 15.6293 21.7625C16.2329 21.6538 16.6554 21.533 16.9572 21.3519C17.3797 21.0983 18.1644 20.2046 19.5164 18.8761C20.3644 17.9833 21.1823 17.3664 21.4238 16.7626C21.6652 15.8568 21.3031 15.3737 20.7598 14.8785Z" stroke="#252B37" stroke-width="1.5"/>
</svg>
