<svg width="25" height="24" viewBox="0 0 25 24" fill="none" xmlns="http://www.w3.org/2000/svg">
<g id="delete-02">
<path id="Vector" d="M18.6662 20.5008L18.6662 20.5008C18.3307 20.9869 17.899 21.3967 17.3988 21.7044L17.3988 21.7045C16.8833 22.0216 16.2921 22.1742 15.5287 22.25L9.45188 22.2499C8.68753 22.1739 8.09566 22.0211 7.57986 21.7033L7.57982 21.7033C7.07928 21.395 6.64743 20.9845 6.31202 20.4976L6.31201 20.4976C5.96236 19.9901 5.77489 19.3938 5.65362 18.6148C5.53427 17.8481 5.47588 16.8795 5.40033 15.6155L4.78078 5.25H20.2185L19.5834 15.6259C19.5062 16.888 19.4464 17.8553 19.3263 18.6209C19.204 19.3988 19.016 19.9942 18.6662 20.5008ZM8.75 17.2109C8.75 17.9014 9.30969 18.4609 10 18.4609C10.6903 18.4609 11.25 17.9014 11.25 17.2109V11.2109C11.25 10.5206 10.6904 9.9609 10 9.9609C9.30964 9.9609 8.75 10.5206 8.75 11.2109V17.2109ZM16.25 11.2109C16.25 10.5206 15.6903 9.9609 15 9.9609C14.3097 9.9609 13.75 10.5206 13.75 11.2109V17.2109C13.75 17.9014 14.3097 18.4609 15 18.4609C15.6903 18.4609 16.25 17.9014 16.25 17.2109V11.2109Z" fill="#FF6666" stroke="#FF6666"/>
<path id="Vector_2" fill-rule="evenodd" clip-rule="evenodd" d="M13.8473 1.28277C14.4124 1.33331 14.9435 1.50576 15.3996 1.84591C15.7369 2.09748 15.9712 2.40542 16.1714 2.73893C16.3569 3.04798 16.5437 3.4333 16.7555 3.8704L17.1823 4.7507H21.5C22.0523 4.7507 22.5 5.19842 22.5 5.7507C22.5 6.30299 22.0523 6.7507 21.5 6.7507C15.4998 6.7507 9.50019 6.7507 3.5 6.7507C2.94772 6.7507 2.5 6.30299 2.5 5.7507C2.5 5.19842 2.94772 4.7507 3.5 4.7507H7.90976L8.26556 3.97016C8.47212 3.51696 8.65403 3.11782 8.83676 2.79754C9.03387 2.45207 9.26721 2.13237 9.60861 1.87046C10.0703 1.51626 10.6121 1.33669 11.1899 1.28409C11.6249 1.24449 12.0634 1.24994 12.5 1.25064C13.0108 1.25146 13.47 1.24902 13.8473 1.28277ZM10.1078 4.7507H14.9597C14.733 4.28331 14.588 3.98707 14.4566 3.7682C14.2643 3.44787 14.0339 3.30745 13.6691 3.27482C13.4098 3.25163 13.0719 3.2507 12.5345 3.2507C11.9837 3.2507 11.637 3.25166 11.3712 3.27585C10.9971 3.30991 10.7639 3.45568 10.5739 3.78866C10.4494 4.00687 10.3139 4.29897 10.1078 4.7507Z" fill="#FF6666"/>
</g>
</svg>
