<svg width="49" height="48" viewBox="0 0 49 48" fill="none" xmlns="http://www.w3.org/2000/svg">
    <path d="M0.666016 8C0.666016 3.58172 4.24774 0 8.66602 0H40.666C45.0843 0 48.666 3.58172 48.666 8V40C48.666 44.4183 45.0843 48 40.666 48H8.66602C4.24774 48 0.666016 44.4183 0.666016 40V8Z" fill="#FF922E" fill-opacity="0.15"/>
    <path d="M25.1269 22.4784C23.8854 22.2281 22.7947 21.5549 22.0763 20.5956C21.961 20.4437 21.8806 20.272 21.8401 20.0908C21.7996 19.9097 21.7998 19.7229 21.8407 19.5418C22.1953 18.3709 24.1975 17.7187 26.1344 18.1496C27.0378 18.3317 27.8566 18.7668 28.4772 19.3943C28.6401 19.5714 28.8398 19.7174 29.0646 19.8237C29.2895 19.93 29.5351 19.9946 29.7874 20.0138C30.0397 20.033 30.2936 20.0064 30.5346 19.9355C30.7755 19.8646 30.9988 19.7508 31.1915 19.6007C31.3842 19.4506 31.5426 19.2671 31.6575 19.0608C31.7724 18.8545 31.8416 18.6295 31.8611 18.3986C31.8806 18.1678 31.85 17.9357 31.771 17.7157C31.6921 17.4958 31.5663 17.2922 31.4011 17.1168C30.2572 15.9278 28.7352 15.0959 27.0485 14.7376C26.9461 14.7142 26.8462 14.7118 26.7438 14.6931V13.7564C26.7438 13.2905 26.5415 12.8438 26.1814 12.5144C25.8212 12.185 25.3328 12 24.8235 12C24.3142 12 23.8258 12.185 23.4657 12.5144C23.1056 12.8438 22.9033 13.2905 22.9033 13.7564V14.7212C21.7999 14.9154 20.7745 15.3791 19.9359 16.0631C19.0973 16.747 18.4766 17.6258 18.1397 18.6062C17.9608 19.2402 17.924 19.9007 18.0313 20.548C18.1387 21.1953 18.3881 21.8161 18.7645 22.373C20.0031 24.1568 21.9633 25.4197 24.2167 25.8857C25.4587 26.1364 26.5496 26.8105 27.2674 27.7709C27.3828 27.9227 27.4634 28.0944 27.5041 28.2756C27.5448 28.4567 27.5448 28.6435 27.5042 28.8247C27.1471 29.9956 25.1436 30.6455 23.2092 30.2169C22.2967 30.0348 21.4707 29.5929 20.8499 28.9547C20.5216 28.6016 20.054 28.3815 19.5491 28.3424C19.0441 28.3033 18.5427 28.4484 18.1542 28.746C17.7657 29.0435 17.5215 29.4695 17.4749 29.931C17.4283 30.3926 17.5831 30.8522 17.9055 31.2098C19.0538 32.422 20.593 33.2698 22.3016 33.6313C22.5013 33.6758 22.6997 33.698 22.8994 33.7308V34.2436C22.8994 34.7095 23.1017 35.1562 23.4619 35.4856C23.822 35.815 24.3104 36 24.8197 36C25.329 36 25.8174 35.815 26.1775 35.4856C26.5376 35.1562 26.74 34.7095 26.74 34.2436V33.5938C27.784 33.3652 28.745 32.8918 29.5282 32.2202C30.3113 31.5486 30.8898 30.702 31.2065 29.7638C31.385 29.1297 31.4215 28.4692 31.314 27.8219C31.2064 27.1746 30.9569 26.5539 30.5805 25.997C29.3424 24.2111 27.3817 22.9461 25.1269 22.4784Z" fill="#FF922E"/>
</svg>