<svg width="14" height="15" viewBox="0 0 14 15" fill="none" xmlns="http://www.w3.org/2000/svg">
<g id="edit-outline">
<g id="Vector">
<path d="M9.92588 12.8813C9.92588 12.9144 9.9134 12.9461 9.8912 12.9695C9.86899 12.9929 9.83888 13.0061 9.80748 13.0061H1.53638C1.50498 13.0061 1.47487 12.9929 1.45266 12.9695C1.43046 12.9461 1.41798 12.9144 1.41798 12.8813V4.16715C1.41798 4.13406 1.43046 4.10234 1.45266 4.07894C1.47487 4.05555 1.50498 4.04241 1.53638 4.04241H6.62411L8.04209 2.54846H1.53638C1.12902 2.54886 0.738458 2.71953 0.450411 3.023C0.162365 3.32648 0.000375447 3.73797 0 4.16715V12.8813C0.000375447 13.3105 0.162365 13.722 0.450411 14.0255C0.738458 14.3289 1.12902 14.4996 1.53638 14.5H9.80748C10.2148 14.4996 10.6054 14.3289 10.8934 14.0255C11.1815 13.722 11.3435 13.3105 11.3439 12.8813V7.52105L9.92588 9.01499V12.8813Z" fill="#6B7280"/>
<path d="M13.3744 1.15611C12.9755 0.736003 12.4346 0.5 11.8706 0.5C11.3066 0.5 10.7657 0.736003 10.3669 1.15611L4.85163 6.96605C4.75277 7.07037 4.68543 7.20318 4.65807 7.34775L4.15682 9.98904C4.13579 10.0976 4.13794 10.2097 4.16311 10.3172C4.18828 10.4248 4.23584 10.5251 4.30235 10.6109C4.36885 10.6967 4.45264 10.7659 4.54765 10.8133C4.64265 10.8608 4.74648 10.8854 4.85163 10.8854C4.89921 10.8852 4.94667 10.8805 4.99343 10.8712L7.49971 10.3431C7.63701 10.3141 7.76307 10.2429 7.862 10.1384L13.3765 4.3285C13.5744 4.1202 13.7313 3.87284 13.8383 3.60058C13.9452 3.32832 14.0002 3.03651 14 2.74184C13.9998 2.44717 13.9444 2.15543 13.8371 1.88333C13.7298 1.61123 13.5725 1.36411 13.3744 1.15611ZM12.3719 2.21233C12.4378 2.2817 12.4901 2.36408 12.5258 2.45476C12.5615 2.54544 12.5798 2.64264 12.5798 2.74081C12.5798 2.83897 12.5615 2.93617 12.5258 3.02685C12.4901 3.11753 12.4378 3.19992 12.3719 3.26929L11.9919 3.66892L10.9894 2.6127L11.3694 2.21233C11.5023 2.07229 11.6826 1.99362 11.8706 1.99362C12.0586 1.99362 12.2389 2.07229 12.3719 2.21233ZM7.00909 8.91938L5.75559 9.18381L6.00657 7.86242L9.98685 3.66892L10.9894 4.72514L7.00909 8.91938Z" fill="#6B7280"/>
</g>
</g>
</svg>
