<svg width="12" height="12" viewBox="0 0 12 12" fill="none" xmlns="http://www.w3.org/2000/svg">
<g id="edit-user-02">
<path id="Vector" d="M2.4005 7.32464C3.9921 6.39179 6.0081 6.39179 7.5997 7.32464C7.6501 7.35419 7.71285 7.38904 7.7843 7.42869C8.1006 7.60429 8.58655 7.87404 8.91925 8.19459C9.127 8.39479 9.33175 8.66514 9.36915 9.00184C9.4092 9.36259 9.24805 9.69554 8.9399 9.98454C8.41485 10.4769 7.7809 10.875 6.9597 10.875H3.04048C2.21931 10.875 1.58535 10.4769 1.06031 9.98454C0.752151 9.69554 0.590976 9.36259 0.631036 9.00184C0.668421 8.66514 0.873201 8.39479 1.08095 8.19459C1.41364 7.87404 1.8996 7.60429 2.21592 7.42869C2.28733 7.38904 2.3501 7.35419 2.4005 7.32464Z" fill="#666C79"/>
<path id="Vector_2" d="M2.625 3.5C2.625 2.18833 3.68833 1.125 5.00001 1.125C6.31166 1.125 7.37501 2.18833 7.37501 3.5C7.37501 4.81168 6.31166 5.875 5.00001 5.875C3.68833 5.875 2.625 4.81168 2.625 3.5Z" fill="#666C79"/>
<path id="Vector_3" d="M7.5 5.70455C7.5 5.70455 7.875 5.70455 8.375 6.5C8.375 6.5 9.7647 4.41667 11 4" stroke="#666C79" stroke-width="1.3" stroke-linecap="round" stroke-linejoin="round"/>
</g>
</svg>
