<svg width="14" height="15" viewBox="0 0 14 15" fill="none" xmlns="http://www.w3.org/2000/svg">
<path d="M12.6 1.66699H1.4C1.0287 1.66699 0.672601 1.83088 0.41005 2.1226C0.1475 2.41433 0 2.80999 0 3.22255V11.7781C0 12.1907 0.1475 12.5863 0.41005 12.878C0.672601 13.1698 1.0287 13.3337 1.4 13.3337H12.6C12.9713 13.3337 13.3274 13.1698 13.5899 12.878C13.8525 12.5863 14 12.1907 14 11.7781V3.22255C14 2.80999 13.8525 2.41433 13.5899 2.1226C13.3274 1.83088 12.9713 1.66699 12.6 1.66699ZM12.2171 3.22255L7.0301 8.1101L1.7892 3.22255H12.2171ZM1.4 11.7781V4.89088L6.16 9.32421C6.3995 9.52436 6.69122 9.63223 6.9909 9.63144C7.30902 9.63004 7.61801 9.51314 7.8708 9.29855L12.6 4.89088V11.7781H1.4Z" fill="#6B7280"/>
</svg>
