<svg width="14" height="15" viewBox="0 0 14 15" fill="none" xmlns="http://www.w3.org/2000/svg">
<g id="File search" clip-path="url(#clip0_2674_114491)">
<path id="Vector" d="M5.50011 1.08301V3.93486C5.50011 4.12395 5.4211 4.30529 5.28046 4.439C5.13981 4.57271 4.94906 4.64782 4.75017 4.64782H1.75039M8.11292 10.3401L9.7268 11.8744M12.2496 1.79597V13.2034C12.2559 13.386 12.1858 13.5636 12.0546 13.6972C11.9235 13.8309 11.742 13.9096 11.5499 13.9163H2.45009C2.25798 13.9096 2.07649 13.8309 1.94535 13.6972C1.81421 13.5636 1.74411 13.386 1.75039 13.2034V4.52519C1.75047 4.14704 1.90855 3.78441 2.18986 3.51706L4.3107 1.5008C4.59192 1.23337 4.97336 1.08309 5.37112 1.08301H11.5499C11.742 1.0897 11.9235 1.16848 12.0546 1.30211C12.1858 1.43573 12.2559 1.61331 12.2496 1.79597ZM8.77288 8.82865C8.77288 10.0099 7.76559 10.9675 6.52305 10.9675C5.2805 10.9675 4.27321 10.0099 4.27321 8.82865C4.27321 7.64737 5.2805 6.68976 6.52305 6.68976C7.76559 6.68976 8.77288 7.64737 8.77288 8.82865Z" stroke="#6B7280" stroke-width="1.5" stroke-linecap="round" stroke-linejoin="round"/>
</g>
<defs>
<clipPath id="clip0_2674_114491">
<rect width="14" height="14" fill="white" transform="translate(0 0.5)"/>
</clipPath>
</defs>
</svg>
