<svg width="12" height="12" viewBox="0 0 12 12" fill="none" xmlns="http://www.w3.org/2000/svg">
<g id="home-05">
<path id="Vector" fill-rule="evenodd" clip-rule="evenodd" d="M4.55371 1.42678C5.02475 1.08217 5.4756 0.875 6 0.875C6.5244 0.875 6.97525 1.08217 7.4463 1.42678C7.9034 1.76119 8.41825 2.2549 9.06795 2.87786L9.08545 2.89466L10.375 4.0859V6.77825C10.375 7.6971 10.375 8.4249 10.2985 8.9945C10.2196 9.5807 10.0536 10.0552 9.6794 10.4294C9.3052 10.8036 8.8307 10.9696 8.2445 11.0485C7.6749 11.125 6.9471 11.125 6.0282 11.125H5.97175C5.0529 11.125 4.32509 11.125 3.75549 11.0485C3.16928 10.9696 2.69481 10.8036 2.32062 10.4294C1.94644 10.0552 1.78038 9.5807 1.70157 8.9945C1.62499 8.4249 1.62499 7.6971 1.625 6.7782V4.0859L2.91456 2.89465L2.93208 2.87785C3.58174 2.2549 4.09662 1.76119 4.55371 1.42678ZM5.99775 7.875C5.6538 7.875 5.375 8.1548 5.375 8.5C5.375 8.8452 5.6538 9.125 5.99775 9.125C6.33885 9.125 6.625 8.84415 6.625 8.5C6.625 8.15585 6.33885 7.875 5.99775 7.875Z" fill="#252B37"/>
<path id="Vector_2" fill-rule="evenodd" clip-rule="evenodd" d="M5.07035 2.13297C4.66667 2.42831 4.19434 2.87976 3.51763 3.52864L1.34605 5.6109C1.14673 5.802 0.830225 5.79535 0.639105 5.59605C0.447983 5.39675 0.454629 5.0802 0.653945 4.8891L2.8515 2.78193C3.49608 2.16384 4.01603 1.66526 4.4799 1.3259C4.96232 0.972965 5.43885 0.75 6 0.75C6.56115 0.75 7.0377 0.972965 7.5201 1.3259C7.98395 1.66526 8.5039 2.16384 9.1485 2.78193L11.3461 4.8891C11.5454 5.0802 11.552 5.39675 11.3609 5.59605C11.1698 5.79535 10.8532 5.802 10.6539 5.6109L8.48235 3.52864C7.80565 2.87976 7.33335 2.42831 6.92965 2.13297C6.5383 1.84666 6.26725 1.75 6 1.75C5.73275 1.75 5.4617 1.84666 5.07035 2.13297Z" fill="#252B37"/>
</g>
</svg>
