<svg width="16" height="16" viewBox="0 0 16 16" fill="none" xmlns="http://www.w3.org/2000/svg">
<g id="map-pin-outline">
<g id="Vector">
<path d="M7.9984 9.60315C7.33913 9.60315 6.69466 9.41557 6.1465 9.06412C5.59833 8.71268 5.17109 8.21315 4.9188 7.62871C4.66651 7.04428 4.6005 6.40118 4.72911 5.78075C4.85773 5.16032 5.1752 4.59041 5.64138 4.1431C6.10755 3.6958 6.70149 3.39118 7.3481 3.26776C7.9947 3.14435 8.66492 3.20769 9.27401 3.44977C9.8831 3.69185 10.4037 4.1018 10.77 4.62778C11.1362 5.15376 11.3317 5.77214 11.3317 6.40473C11.3317 7.25301 10.9805 8.06654 10.3554 8.66636C9.7303 9.26618 8.88245 9.60315 7.9984 9.60315ZM7.9984 4.80552C7.66876 4.80552 7.34653 4.89931 7.07245 5.07503C6.79837 5.25076 6.58474 5.50052 6.4586 5.79274C6.33245 6.08496 6.29945 6.4065 6.36376 6.71672C6.42806 7.02694 6.5868 7.31189 6.81989 7.53554C7.05297 7.7592 7.34995 7.91151 7.67325 7.97321C7.99655 8.03492 8.33166 8.00325 8.6362 7.88221C8.94075 7.76117 9.20104 7.55619 9.38418 7.2932C9.56732 7.03022 9.66506 6.72102 9.66506 6.40473C9.66506 5.98059 9.48947 5.57383 9.17691 5.27392C8.86435 4.97401 8.44043 4.80552 7.9984 4.80552Z" fill="#3F83F8"/>
<path d="M7.9984 16C7.87536 15.9999 7.75386 15.9737 7.64263 15.9233C7.5314 15.8728 7.43319 15.7993 7.35506 15.7081L2.98423 10.6115C2.9009 10.5219 2.8059 10.41 2.71257 10.2916L2.61257 10.1749C2.57375 10.1298 2.54022 10.0807 2.51257 10.0285C1.82617 9.07355 1.42335 7.95744 1.34722 6.79966C1.27108 5.64189 1.52451 4.48604 2.08036 3.45584C2.63621 2.42564 3.47357 1.55987 4.5028 0.951205C5.53203 0.342538 6.71439 0.0138874 7.92332 0.000430517C9.13225 -0.0130263 10.3222 0.289217 11.3659 0.87481C12.4096 1.4604 13.2676 2.3073 13.8482 3.32485C14.4289 4.3424 14.7102 5.49229 14.662 6.65145C14.6139 7.81061 14.2382 8.93539 13.5751 9.90541C13.5479 9.96038 13.5137 10.0119 13.4734 10.0589L13.3676 10.1829C13.2186 10.3784 13.0578 10.5653 12.8859 10.7426L8.64256 15.7041C8.56475 15.7962 8.46659 15.8705 8.35519 15.9216C8.24378 15.9728 8.12191 15.9996 7.9984 16ZM3.97757 9.25293L4.01673 9.2985C4.10007 9.40645 4.17757 9.49201 4.25423 9.57517L7.9984 13.941L11.6301 9.69671C11.7793 9.54251 11.9184 9.37961 12.0467 9.20895L12.1092 9.13618L12.1309 9.1034C12.6463 8.3782 12.9446 7.5312 12.9931 6.65464C13.0416 5.77807 12.8385 4.90553 12.406 4.13203C11.9735 3.35852 11.3281 2.7137 10.5402 2.26777C9.75217 1.82184 8.85178 1.59189 7.93703 1.60297C7.02227 1.61404 6.12822 1.86571 5.35221 2.33058C4.5762 2.79545 3.94798 3.45569 3.53595 4.23942C3.12392 5.02315 2.94388 5.90033 3.01543 6.77544C3.08698 7.65055 3.40738 8.49006 3.94173 9.20255C3.95507 9.21961 3.96701 9.2364 3.97757 9.25293Z" fill="#3F83F8"/>
</g>
</g>
</svg>
