<svg width="32" height="32" viewBox="0 0 32 32" fill="none" xmlns="http://www.w3.org/2000/svg">
<path d="M2.66797 8L11.8853 13.2226C15.2834 15.148 16.7192 15.148 20.1173 13.2226L29.3346 8" stroke="#0284FE" stroke-width="2" stroke-linejoin="round"/>
<path d="M2.689 17.9678C2.77616 22.0553 2.81974 24.0989 4.32792 25.6129C5.83608 27.1267 7.93508 27.1794 12.1331 27.2849C14.7204 27.3499 17.2822 27.3499 19.8696 27.2849C24.0676 27.1794 26.1665 27.1267 27.6748 25.6129C29.1829 24.0989 29.2265 22.0553 29.3136 17.9678C29.3417 16.6535 29.3417 15.3471 29.3136 14.0329C29.2265 9.94547 29.1829 7.90178 27.6748 6.38787C26.1665 4.87397 24.0676 4.82123 19.8696 4.71575C17.2822 4.65074 14.7204 4.65074 12.1331 4.71574C7.93508 4.82121 5.83608 4.87394 4.3279 6.38786C2.81973 7.90177 2.77616 9.94546 2.68898 14.0329C2.66096 15.3471 2.66097 16.6535 2.689 17.9678Z" stroke="#0284FE" stroke-width="2" stroke-linejoin="round"/>
</svg>
