<svg width="18" height="18" viewBox="0 0 18 18" fill="none" xmlns="http://www.w3.org/2000/svg">
<path d="M5.40078 9.0002C5.40078 9.47759 5.21114 9.93542 4.87357 10.273C4.53601 10.6106 4.07817 10.8002 3.60078 10.8002C3.12339 10.8002 2.66555 10.6106 2.32799 10.273C1.99042 9.93542 1.80078 9.47759 1.80078 9.0002C1.80078 8.52281 1.99042 8.06497 2.32799 7.7274C2.66555 7.38984 3.12339 7.2002 3.60078 7.2002C4.07817 7.2002 4.53601 7.38984 4.87357 7.7274C5.21114 8.06497 5.40078 8.52281 5.40078 9.0002ZM10.8008 9.0002C10.8008 9.47759 10.6111 9.93542 10.2736 10.273C9.93601 10.6106 9.47817 10.8002 9.00078 10.8002C8.52339 10.8002 8.06556 10.6106 7.72799 10.273C7.39042 9.93542 7.20078 9.47759 7.20078 9.0002C7.20078 8.52281 7.39042 8.06497 7.72799 7.7274C8.06556 7.38984 8.52339 7.2002 9.00078 7.2002C9.47817 7.2002 9.93601 7.38984 10.2736 7.7274C10.6111 8.06497 10.8008 8.52281 10.8008 9.0002ZM14.4008 10.8002C14.8782 10.8002 15.336 10.6106 15.6736 10.273C16.0111 9.93542 16.2008 9.47759 16.2008 9.0002C16.2008 8.52281 16.0111 8.06497 15.6736 7.7274C15.336 7.38984 14.8782 7.2002 14.4008 7.2002C13.9234 7.2002 13.4656 7.38984 13.128 7.7274C12.7904 8.06497 12.6008 8.52281 12.6008 9.0002C12.6008 9.47759 12.7904 9.93542 13.128 10.273C13.4656 10.6106 13.9234 10.8002 14.4008 10.8002Z" fill="#666C79"/>
</svg>
