<svg width="14" height="15" viewBox="0 0 14 15" fill="none" xmlns="http://www.w3.org/2000/svg">
<path fill-rule="evenodd" clip-rule="evenodd" d="M0.728516 7.50033C0.728516 10.9636 3.53606 13.7712 6.99935 13.7712C10.4627 13.7712 13.2702 10.9636 13.2702 7.50033C13.2702 4.03704 10.4627 1.22949 6.99935 1.22949C3.53606 1.22949 0.728516 4.03704 0.728516 7.50033ZM6.81379 6.93292C6.95787 6.95228 7.15726 7.00414 7.32642 7.17331C7.49559 7.34247 7.54745 7.5418 7.56682 7.68594C7.58286 7.80529 7.58274 7.94413 7.58268 8.06068V8.08366V10.417C7.58268 10.7392 7.32152 11.0003 6.99935 11.0003C6.67717 11.0003 6.41602 10.7392 6.41602 10.417V8.08366C6.09384 8.08366 5.83268 7.8225 5.83268 7.50033C5.83268 7.17815 6.09384 6.91699 6.41602 6.91699H6.439C6.55561 6.91693 6.69438 6.91682 6.81379 6.93292ZM6.99667 4.58366C6.67595 4.58366 6.41596 4.84483 6.41596 5.16699C6.41596 5.48916 6.67595 5.75033 6.99667 5.75033H7.00192C7.32263 5.75033 7.58262 5.48916 7.58262 5.16699C7.58262 4.84483 7.32263 4.58366 7.00192 4.58366H6.99667Z" fill="#ADB0B7"/>
</svg>
