<svg width="18" height="19" viewBox="0 0 18 19" fill="none" xmlns="http://www.w3.org/2000/svg">
<g id="note-edit">
<path id="Vector" d="M7.7169 17.208H7.04333C4.60696 17.208 3.38877 17.208 2.63189 16.4392C1.875 15.6703 1.875 14.4328 1.875 11.958V8.20801C1.875 5.73313 1.875 4.4957 2.63189 3.72686C3.38877 2.95801 4.60696 2.95801 7.04333 2.95801H9.2583C11.6947 2.95801 13.118 2.99939 13.875 3.76824C14.6319 4.53708 14.625 5.73313 14.625 8.20801V9.09779" stroke="#0284FE" stroke-width="1.5" stroke-linecap="round" stroke-linejoin="round"/>
<path id="Vector_2" d="M5.25 11.9873H8.25M5.25 8.2373H11.25" stroke="#0284FE" stroke-width="1.5" stroke-linecap="round"/>
<path id="Vector_3" opacity="0.93" d="M15.5699 11.8962C14.8908 11.1354 14.4834 11.1807 14.0307 11.3165C13.7138 11.3618 12.6274 12.6299 12.1747 13.0337C11.4314 13.768 10.6848 14.524 10.6355 14.6226C10.4948 14.8514 10.364 15.2567 10.3006 15.7095C10.1828 16.3889 10.013 17.1537 10.2281 17.2192C10.4432 17.2847 11.0429 17.1588 11.722 17.0592C12.1747 16.9776 12.4916 16.887 12.7179 16.7512C13.0348 16.561 13.6233 15.8907 14.6373 14.8944C15.2733 14.2248 15.8867 13.7621 16.0679 13.3092C16.2489 12.6299 15.9773 12.2676 15.5699 11.8962Z" stroke="#0284FE" stroke-width="1.5"/>
</g>
</svg>
