<svg width="16" height="16" viewBox="0 0 16 16" fill="none" xmlns="http://www.w3.org/2000/svg">
<g id="note-edit">
<path id="Vector" d="M6.8593 14.6403H6.26058C4.09491 14.6403 3.01208 14.6403 2.33929 13.9569C1.6665 13.2734 1.6665 12.1735 1.6665 9.97361V6.6403C1.6665 4.44041 1.6665 3.34047 2.33929 2.65705C3.01208 1.97363 4.09491 1.97363 6.26058 1.97363H8.22944C10.3951 1.97363 11.6603 2.01042 12.3332 2.69384C13.006 3.37725 12.9998 4.44041 12.9998 6.6403V7.43121" stroke="#666C79" stroke-width="1.5" stroke-linecap="round" stroke-linejoin="round"/>
<path id="Vector_2" d="M4.6665 10.0003H7.33317M4.6665 6.66699H9.99984" stroke="#666C79" stroke-width="1.5" stroke-linecap="round"/>
<path id="Vector_3" opacity="0.93" d="M13.8399 9.91866C13.2363 9.24239 12.8741 9.28266 12.4717 9.40339C12.1901 9.44366 11.2243 10.5709 10.8219 10.9298C10.1613 11.5825 9.49761 12.2545 9.45381 12.3422C9.32875 12.5455 9.21241 12.9058 9.15608 13.3083C9.05141 13.9122 8.90048 14.592 9.09168 14.6503C9.28281 14.7085 9.81595 14.5966 10.4195 14.508C10.8219 14.4355 11.1036 14.355 11.3048 14.2343C11.5865 14.0652 12.1096 13.4694 13.0109 12.5837C13.5763 11.9885 14.1215 11.5773 14.2825 11.1747C14.4435 10.5709 14.2021 10.2488 13.8399 9.91866Z" stroke="#666C79" stroke-width="1.5"/>
</g>
</svg>
