<svg width="56" height="56" viewBox="0 0 56 56" fill="none" xmlns="http://www.w3.org/2000/svg">
<g id="google-sheet">
<path d="M0.35 6C0.35 2.87959 2.87959 0.35 6 0.35H50C53.1204 0.35 55.65 2.87959 55.65 6V50C55.65 53.1204 53.1204 55.65 50 55.65H6C2.87959 55.65 0.35 53.1204 0.35 50V6Z" stroke="#D4D6D9" stroke-width="0.7"/>
<path id="Vector" opacity="0.4" d="M39.1997 30.7992V25.3388C39.1997 24.0035 39.1997 23.3359 38.9511 22.7356L37.5664 22.6326C32.9467 22.6326 30.6368 22.6326 29.2016 21.1974C27.7664 19.7622 27.7664 17.4523 27.7664 12.8326L27.5005 11.3854C26.9728 11.1992 26.3967 11.1992 25.2442 11.1992C19.9441 11.1992 17.294 11.1992 15.499 12.6465C15.1363 12.9388 14.806 13.2692 14.5137 13.6318C13.0664 15.4268 13.0664 18.0769 13.0664 23.3771V30.7992C13.0664 36.9588 13.0664 40.0388 14.98 41.9523C16.8936 43.8659 19.9734 43.8659 26.1331 43.8659C32.2927 43.8659 35.3727 43.8659 37.2861 41.9523C39.1997 40.0388 39.1997 36.9588 39.1997 30.7992Z" fill="#EF7474"/>
<path id="Vector_2" d="M39.1997 25.8992C39.1997 24.564 39.1997 23.3359 38.9511 22.7356C38.7024 22.1352 38.2304 21.6632 37.2861 20.719L29.5498 12.9826C28.735 12.1678 28.3276 11.7604 27.8228 11.5189C27.7177 11.4687 27.6103 11.4242 27.5005 11.3854C26.9728 11.1992 26.3967 11.1992 25.2442 11.1992C19.9441 11.1992 17.294 11.1992 15.499 12.6465C15.1363 12.9388 14.806 13.2692 14.5137 13.6318C13.0664 15.4268 13.0664 18.0769 13.0664 23.3771V30.7992C13.0664 36.9588 13.0664 40.0388 14.98 41.9523C16.8936 43.8659 19.9734 43.8659 26.1331 43.8659H39.1997M27.7664 12.0159V12.8326C27.7664 17.4523 27.7664 19.7622 29.2016 21.1974C30.6368 22.6326 32.9467 22.6326 37.5664 22.6326H38.3831" stroke="#EF7474" stroke-width="2" stroke-linecap="round" stroke-linejoin="round"/>
<path id="Vector_3" d="M42.4682 30.8008H39.2016C38.2995 30.8008 37.5682 31.532 37.5682 32.4341V34.8841M37.5682 34.8841V38.9674M37.5682 34.8841H41.6516M19.6016 38.9674V35.7008M19.6016 35.7008V30.8008H22.0516C23.4047 30.8008 24.5016 31.8977 24.5016 33.2508C24.5016 34.6038 23.4047 35.7008 22.0516 35.7008H19.6016ZM28.5849 30.8008H30.6849C32.2313 30.8008 33.4849 32.0196 33.4849 33.5231V36.2452C33.4849 37.7487 32.2313 38.9674 30.6849 38.9674H28.5849V30.8008Z" stroke="#EF7474" stroke-width="2" stroke-linecap="round" stroke-linejoin="round"/>
</g>
</svg>
