<svg width="25" height="24" viewBox="0 0 25 24" fill="none" xmlns="http://www.w3.org/2000/svg">
<g id="pin">
<path id="Vector" d="M3.5 21L8.5 16" stroke="#FF922E" stroke-width="1.5" stroke-linecap="round" stroke-linejoin="round"/>
<path id="Vector_2" d="M13.7585 18.8714C10.0152 18.0215 6.47844 14.4848 5.62853 10.7415C5.49399 10.1489 5.42672 9.85266 5.62161 9.37197C5.8165 8.89129 6.05457 8.74255 6.53071 8.44509C7.60705 7.77265 8.77254 7.55888 9.98209 7.66586C11.6793 7.81598 12.5279 7.89104 12.9512 7.67048C13.3746 7.44991 13.6622 6.93417 14.2376 5.90269L14.9664 4.59604C15.4465 3.73528 15.6866 3.3049 16.2513 3.10202C16.816 2.89913 17.1558 3.02199 17.8355 3.26771C19.4249 3.84236 20.6576 5.07505 21.2323 6.66449C21.478 7.34417 21.6009 7.68401 21.398 8.2487C21.1951 8.8134 20.7647 9.05346 19.9039 9.53358L18.5672 10.2792C17.5376 10.8534 17.0229 11.1406 16.8024 11.568C16.5819 11.9955 16.662 12.8256 16.8221 14.4859C16.9399 15.7068 16.7369 16.88 16.0555 17.9697C15.7577 18.4458 15.6088 18.6839 15.1283 18.8786C14.6477 19.0733 14.3513 19.006 13.7585 18.8714Z" stroke="#FF922E" stroke-width="1.5" stroke-linecap="round" stroke-linejoin="round"/>
</g>
</svg>
