<svg width="12" height="13" viewBox="0 0 12 13" fill="none" xmlns="http://www.w3.org/2000/svg">
<path d="M10.2659 5.96686H6.53255V2.23353C6.53255 2.09208 6.47636 1.95642 6.37634 1.85641C6.27632 1.75639 6.14067 1.7002 5.99922 1.7002C5.85777 1.7002 5.72212 1.75639 5.6221 1.85641C5.52208 1.95642 5.46589 2.09208 5.46589 2.23353V5.96686H1.73255C1.5911 5.96686 1.45545 6.02305 1.35543 6.12307C1.25541 6.22309 1.19922 6.35875 1.19922 6.5002C1.19922 6.64164 1.25541 6.7773 1.35543 6.87732C1.45545 6.97734 1.5911 7.03353 1.73255 7.03353H5.46589V10.7669C5.46589 10.9083 5.52208 11.044 5.6221 11.144C5.72212 11.244 5.85777 11.3002 5.99922 11.3002C6.14067 11.3002 6.27632 11.244 6.37634 11.144C6.47636 11.044 6.53255 10.9083 6.53255 10.7669V7.03353H10.2659C10.4073 7.03353 10.543 6.97734 10.643 6.87732C10.743 6.7773 10.7992 6.64164 10.7992 6.5002C10.7992 6.35875 10.743 6.22309 10.643 6.12307C10.543 6.02305 10.4073 5.96686 10.2659 5.96686Z" fill="#111928"/>
</svg>
