<svg width="56" height="56" viewBox="0 0 56 56" fill="none" xmlns="http://www.w3.org/2000/svg">
<g id="Success icon">
<path id="Vector" fill-rule="evenodd" clip-rule="evenodd" d="M28 56C35.4261 56 42.548 53.05 47.799 47.799C53.05 42.548 56 35.4261 56 28C56 20.5739 53.05 13.452 47.799 8.20101C42.548 2.94999 35.4261 0 28 0C20.5739 0 13.452 2.94999 8.20101 8.20101C2.94999 13.452 0 20.5739 0 28C0 35.4261 2.94999 42.548 8.20101 47.799C13.452 53.05 20.5739 56 28 56ZM40.9745 23.4745C41.6121 22.8144 41.9648 21.9303 41.9569 21.0126C41.9489 20.0949 41.5808 19.2171 40.9319 18.5681C40.2829 17.9192 39.4051 17.5511 38.4874 17.5431C37.5697 17.5352 36.6856 17.8879 36.0255 18.5255L24.5 30.051L19.9745 25.5255C19.3144 24.8879 18.4303 24.5352 17.5126 24.5431C16.5949 24.5511 15.7171 24.9192 15.0681 25.5681C14.4192 26.2171 14.0511 27.0949 14.0431 28.0126C14.0352 28.9303 14.3879 29.8144 15.0255 30.4745L22.0255 37.4745C22.6818 38.1306 23.5719 38.4993 24.5 38.4993C25.4281 38.4993 26.3181 38.1306 26.9745 37.4745L40.9745 23.4745Z" fill="#15A033"/>
</g>
</svg>
