<svg width="49" height="48" viewBox="0 0 49 48" fill="none" xmlns="http://www.w3.org/2000/svg">
    <path
    d="M0.333984 8C0.333984 3.58172 3.91571 0 8.33398 0H40.334C44.7523 0 48.334 3.58172 48.334 8V40C48.334 44.4183 44.7523 48 40.334 48H8.33399C3.91571 48 0.333984 44.4183 0.333984 40V8Z"
    fill="#6C2BD9" fill-opacity="0.15" />
    <path
    d="M24.334 23.3684C27.7751 23.3684 30.5648 20.8235 30.5648 17.6842C30.5648 14.5449 27.7751 12 24.334 12C20.8928 12 18.1032 14.5449 18.1032 17.6842C18.1032 20.8235 20.8928 23.3684 24.334 23.3684Z"
    fill="#6C2BD9" />
    <path
    d="M26.4109 24.6316H22.2571C20.4216 24.6336 18.662 25.2996 17.3641 26.4836C16.0663 27.6677 15.3362 29.2729 15.334 30.9474V34.7368C15.334 35.0719 15.4799 35.3931 15.7395 35.63C15.9992 35.8669 16.3514 36 16.7186 36H31.9494C32.3166 36 32.6688 35.8669 32.9284 35.63C33.1881 35.3931 33.334 35.0719 33.334 34.7368V30.9474C33.3318 29.2729 32.6017 27.6677 31.3038 26.4836C30.006 25.2996 28.2463 24.6336 26.4109 24.6316Z"
    fill="#6C2BD9" />
</svg>