<svg width="14" height="15" viewBox="0 0 14 15" fill="none" xmlns="http://www.w3.org/2000/svg">
<g clip-path="url(#clip0_2674_114503)">
<path d="M7 14.5C5.61553 14.5 4.26216 14.0895 3.11101 13.3203C1.95987 12.5511 1.06266 11.4579 0.532846 10.1788C0.00303299 8.8997 -0.13559 7.49224 0.134506 6.13437C0.404603 4.7765 1.07129 3.52922 2.05026 2.55026C3.02922 1.57129 4.2765 0.904603 5.63437 0.634506C6.99224 0.36441 8.3997 0.503033 9.67879 1.03285C10.9579 1.56266 12.0511 2.45987 12.8203 3.61101C13.5895 4.76216 14 6.11553 14 7.5C13.998 9.35589 13.2598 11.1352 11.9475 12.4475C10.6352 13.7598 8.85589 14.498 7 14.5ZM7 1.9C5.89243 1.9 4.80972 2.22844 3.88881 2.84377C2.96789 3.45911 2.25013 4.33371 1.82628 5.35698C1.40243 6.38024 1.29153 7.50621 1.50761 8.59251C1.72368 9.6788 2.25703 10.6766 3.0402 11.4598C3.82338 12.243 4.8212 12.7763 5.9075 12.9924C6.99379 13.2085 8.11976 13.0976 9.14303 12.6737C10.1663 12.2499 11.0409 11.5321 11.6562 10.6112C12.2716 9.69028 12.6 8.60758 12.6 7.5C12.5983 6.0153 12.0078 4.59189 10.958 3.54205C9.90811 2.4922 8.4847 1.90167 7 1.9Z" fill="#E02424"/>
<path d="M7.9898 7.5L9.5949 5.8949C9.72241 5.76288 9.79297 5.58606 9.79137 5.40252C9.78978 5.21898 9.71616 5.04341 9.58637 4.91363C9.45659 4.78384 9.28102 4.71023 9.09748 4.70863C8.91394 4.70704 8.73712 4.77759 8.6051 4.9051L7 6.5102L5.3949 4.9051C5.26288 4.77759 5.08606 4.70704 4.90252 4.70863C4.71898 4.71023 4.54342 4.78384 4.41363 4.91363C4.28384 5.04341 4.21023 5.21898 4.20863 5.40252C4.20704 5.58606 4.27759 5.76288 4.4051 5.8949L6.0102 7.5L4.4051 9.1051C4.33825 9.16967 4.28492 9.24691 4.24823 9.33232C4.21154 9.41772 4.19223 9.50957 4.19143 9.60252C4.19062 9.69547 4.20833 9.78764 4.24353 9.87367C4.27872 9.9597 4.3307 10.0379 4.39643 10.1036C4.46215 10.1693 4.54031 10.2213 4.62633 10.2565C4.71236 10.2917 4.80454 10.3094 4.89748 10.3086C4.99043 10.3078 5.08228 10.2885 5.16769 10.2518C5.25309 10.2151 5.33033 10.1618 5.3949 10.0949L7 8.4898L8.6051 10.0949C8.73712 10.2224 8.91394 10.293 9.09748 10.2914C9.28102 10.2898 9.45659 10.2162 9.58637 10.0864C9.71616 9.95659 9.78978 9.78102 9.79137 9.59748C9.79297 9.41394 9.72241 9.23712 9.5949 9.1051L7.9898 7.5Z" fill="#E02424"/>
</g>
<defs>
<clipPath id="clip0_2674_114503">
<rect width="14" height="14" fill="white" transform="translate(0 0.5)"/>
</clipPath>
</defs>
</svg>
