<svg width="16" height="16" viewBox="0 0 16 16" fill="none" xmlns="http://www.w3.org/2000/svg">
<g id="Group 8810">
<rect id="Rectangle 34624178" width="16" height="16" rx="8" fill="#FF6666"/>
<path id="Vector" d="M6.01589 5.00004C6.27808 4.99776 6.53069 5.09855 6.71929 5.28071L8.01229 6.57371L9.30529 5.28071C9.49389 5.09855 9.74649 4.99776 10.0087 5.00004C10.2709 5.00232 10.5217 5.10749 10.7071 5.29289C10.8925 5.4783 10.9977 5.72911 11 5.99131C11.0022 6.25351 10.9014 6.50611 10.7193 6.69471L9.42629 7.98771L10.7193 9.28071C10.9014 9.46931 11.0022 9.72192 11 9.98411C10.9977 10.2463 10.8925 10.4971 10.7071 10.6825C10.5217 10.8679 10.2709 10.9731 10.0087 10.9754C9.74649 10.9777 9.49389 10.8769 9.30529 10.6947L8.01229 9.40171L6.71929 10.6947C6.62704 10.7902 6.5167 10.8664 6.39469 10.9188C6.27269 10.9712 6.14147 10.9988 6.00869 11C5.87591 11.0011 5.74423 10.9758 5.62133 10.9255C5.49844 10.8753 5.38679 10.801 5.29289 10.7071C5.199 10.6132 5.12475 10.5016 5.07447 10.3787C5.02419 10.2558 4.99888 10.1241 5.00004 9.99131C5.00119 9.85853 5.02878 9.72731 5.08119 9.60531C5.1336 9.4833 5.20978 9.37296 5.30529 9.28071L6.59829 7.98771L5.30529 6.69471C5.12313 6.50611 5.02234 6.25351 5.02461 5.99131C5.02689 5.72911 5.13206 5.4783 5.31747 5.29289C5.50288 5.10749 5.75369 5.00232 6.01589 5.00004Z" fill="white"/>
</g>
</svg>
