<svg width="16" height="16" viewBox="0 0 16 16" fill="none" xmlns="http://www.w3.org/2000/svg">
<g id="Group 8811">
<rect id="Rectangle 34624176" width="16" height="16" rx="8" fill="#15A033"/>
<path id="Vector" d="M6.86216 11.8667C6.66619 11.8673 6.48706 11.7748 6.35995 11.6254L6.35989 11.6253L3.9986 8.84786L3.99821 8.8474L3.99821 8.8474C3.93453 8.77203 3.88531 8.68415 3.85189 8.58957C3.81846 8.49497 3.80105 8.39432 3.80005 8.29314C3.79804 8.09019 3.86223 7.88886 3.98672 7.73429C4.11205 7.57867 4.29238 7.4797 4.49195 7.4768C4.69156 7.47389 4.87437 7.56764 5.00331 7.72009C5.00338 7.72018 5.00346 7.72027 5.00353 7.72035L6.86407 9.90791L10.9962 5.04335C10.9962 5.04331 10.9963 5.04328 10.9963 5.04325C11.1254 4.89071 11.3084 4.797 11.5082 4.80007C11.7079 4.80314 11.8882 4.90231 12.0135 5.0581C12.138 5.21284 12.2021 5.41433 12.1999 5.61739C12.1978 5.82043 12.1295 6.02036 12.0013 6.17181L12.001 6.17217L7.36443 11.6253L7.36437 11.6254C7.23727 11.7748 7.05814 11.8673 6.86216 11.8667ZM6.86216 11.8667C6.86184 11.8667 6.86152 11.8667 6.86121 11.8667L6.86216 11.6667L6.86312 11.8667C6.8628 11.8667 6.86248 11.8667 6.86216 11.8667Z" fill="white" stroke="white" stroke-width="0.4"/>
</g>
</svg>
