<svg width="16" height="16" viewBox="0 0 16 16" fill="none" xmlns="http://www.w3.org/2000/svg">
<g id="Group 8808">
<rect id="Rectangle 34624177" width="16" height="16" rx="8" fill="#38A0FF"/>
<path id="Vector" d="M11.1579 4H4.84211C4.61877 4 4.40457 4.11155 4.24665 4.31012C4.08872 4.50868 4 4.77799 4 5.0588V9.8234C4 10.1042 4.08872 10.3735 4.24665 10.5721C4.40457 10.7706 4.61877 10.8822 4.84211 10.8822H5.68421V12.4704C5.68418 12.5702 5.70657 12.6679 5.74879 12.7523C5.79102 12.8368 5.85136 12.9045 5.92287 12.9478C5.99438 12.991 6.07414 13.0079 6.15297 12.9966C6.2318 12.9853 6.30649 12.9462 6.36842 12.8839L8.35832 10.8822H11.1579C11.3812 10.8822 11.5954 10.7706 11.7534 10.5721C11.9113 10.3735 12 10.1042 12 9.8234V5.0588C12 4.77799 11.9113 4.50868 11.7534 4.31012C11.5954 4.11155 11.3812 4 11.1579 4Z" fill="white"/>
</g>
</svg>
