<svg width="16" height="16" viewBox="0 0 16 16" fill="none" xmlns="http://www.w3.org/2000/svg">
<g id="Group 8809">
<rect id="Rectangle 34624175" width="16" height="16" rx="8" fill="#FF922E"/>
<path id="Vector" d="M11.2 11H4.8C4.58783 11 4.38434 10.9097 4.23431 10.7489C4.08429 10.5882 4 10.3702 4 10.1429V9.07143C4 8.95776 4.04214 8.84876 4.11716 8.76838C4.19217 8.68801 4.29391 8.64286 4.4 8.64286C4.55913 8.64286 4.71174 8.57513 4.82426 8.45457C4.93679 8.33401 5 8.1705 5 8C5 7.8295 4.93679 7.66599 4.82426 7.54543C4.71174 7.42487 4.55913 7.35714 4.4 7.35714C4.29391 7.35714 4.19217 7.31199 4.11716 7.23162C4.04214 7.15124 4 7.04224 4 6.92857V5.85714C4 5.62981 4.08429 5.4118 4.23431 5.25105C4.38434 5.09031 4.58783 5 4.8 5H11.2C11.4122 5 11.6157 5.09031 11.7657 5.25105C11.9157 5.4118 12 5.62981 12 5.85714V6.92857C12 7.04224 11.9579 7.15124 11.8828 7.23162C11.8078 7.31199 11.7061 7.35714 11.6 7.35714C11.4409 7.35714 11.2883 7.42487 11.1757 7.54543C11.0632 7.66599 11 7.8295 11 8C11 8.1705 11.0632 8.33401 11.1757 8.45457C11.2883 8.57513 11.4409 8.64286 11.6 8.64286C11.7061 8.64286 11.8078 8.68801 11.8828 8.76838C11.9579 8.84876 12 8.95776 12 9.07143V10.1429C12 10.3702 11.9157 10.5882 11.7657 10.7489C11.6157 10.9097 11.4122 11 11.2 11Z" fill="white"/>
</g>
</svg>
